<svg width="994" height="581" viewBox="0 0 994 581" fill="none" xmlns="http://www.w3.org/2000/svg">
<g filter="url(#filter0_d)">
<path d="M281.213 74.5957L281.276 212.884L247.638 220.035L250.1 127.439L207.68 228.528L166.98 237.179L166.916 98.8902L200.555 91.7401L199.394 184.059L241.627 83.0099L281.213 74.5957Z" fill="black"/>
<path d="M295.997 209.755L295.934 71.4666L393.69 50.6879L393.68 80.798L330.678 94.1895L330.751 202.368L295.997 209.755Z" fill="black"/>
<path d="M397.52 49.8738L453.832 37.9043C484.311 31.4258 502.316 41.1959 507.847 67.2146C509.637 75.6397 509.402 83.9774 507.142 92.2277C504.979 100.328 501.11 107.107 495.536 112.565C488.146 119.834 475.654 125.338 458.061 129.078L432.042 134.608L432.151 180.815L397.584 188.163L397.52 49.8738ZM431.92 71.8928L432.075 106.435L455.306 101.497C471.041 98.1529 477.579 90.2237 474.919 77.7099C473.681 71.8867 471.068 68.4277 467.08 67.333C463.092 66.2382 457.815 66.3887 451.248 67.7845L431.92 71.8928Z" fill="black"/>
<path d="M574.141 12.3318L623.826 140.073L589.258 147.421L580.778 123.972L534.501 133.808L526.07 160.852L489.644 168.595L539.388 19.7189L574.141 12.3318ZM557.075 52.6715C555.584 60.8877 552.531 72.4145 547.915 87.2518L542.217 106.139L572.696 99.6606L566.792 82.8508C561.747 68.254 558.508 58.1943 557.075 52.6715Z" fill="black"/>
<path d="M120.596 35.6572L120.591 48.3351L104.471 51.7615L104.424 97.3271L89.7909 100.437L89.8383 54.8719L73.1707 58.4147L73.1749 45.7368L120.596 35.6572Z" fill="black"/>
<path d="M123.09 35.1269L147.348 29.9707C149.435 29.5272 151.278 29.2173 152.876 29.0412C154.526 28.8539 156.294 28.8326 158.179 28.9773C160.115 29.1109 161.757 29.5252 163.105 30.2203C164.441 30.8632 165.672 31.9101 166.798 33.3609C167.925 34.8118 168.721 36.6328 169.186 38.8238C169.896 42.1626 169.567 45.2314 168.199 48.0303C166.82 50.777 164.626 52.77 161.618 54.0092C167.264 54.6629 170.703 57.8851 171.933 63.6757C173.064 68.9969 172.103 73.8359 169.049 78.1928C167.671 80.1759 165.845 81.8454 163.57 83.2012C161.337 84.4938 159.37 85.3753 157.671 85.8455C156.024 86.3047 153.635 86.8669 150.505 87.5322L123.039 93.3704L123.09 35.1269ZM137.268 43.7271L137.311 55.0865L148.11 52.7911C153.692 51.6046 156.034 48.8986 155.135 44.673C154.903 43.5775 154.479 42.7405 153.866 42.1621C153.252 41.5837 152.401 41.3011 151.314 41.3142C150.267 41.264 149.425 41.2794 148.788 41.3603C148.203 41.4301 147.285 41.5981 146.033 41.8642L137.268 43.7271ZM137.289 64.9874L137.295 78.4811L147.859 76.2356C149.372 75.9141 150.659 75.5586 151.721 75.1692C152.836 74.7688 153.949 74.2324 155.06 73.56C156.212 72.8243 156.996 71.8944 157.411 70.7701C157.867 69.5826 157.929 68.2064 157.597 66.6413C157.419 65.8066 157.134 65.104 156.74 64.5334C156.346 63.9629 155.954 63.5283 155.563 63.2296C155.213 62.8677 154.646 62.634 153.86 62.5284C153.115 62.3595 152.549 62.2617 152.162 62.235C151.815 62.145 151.115 62.1849 150.061 62.3545C149.058 62.513 148.427 62.62 148.166 62.6754C147.957 62.7198 147.305 62.8584 146.21 63.0912L137.289 64.9874Z" fill="black"/>
<path d="M227.94 36.3952C229.292 42.7597 229.323 48.8054 228.033 54.5323C226.731 60.2069 224.018 65.1455 219.895 69.3479C215.761 73.4981 210.486 76.2552 204.069 77.6191C196.244 79.2824 189.706 78.4092 184.456 74.9997C179.194 71.5379 175.721 65.8423 174.035 57.9128C171.995 48.3139 173.147 39.7539 177.492 32.233C181.825 24.6598 188.713 19.8697 198.156 17.8627C205.668 16.2659 212.111 17.0775 217.484 20.2973C222.858 23.5171 226.343 28.8831 227.94 36.3952ZM199.946 29.7502C197.234 30.3268 194.958 31.5467 193.118 33.4098C191.32 35.2097 190.033 37.3644 189.258 39.8737C188.535 42.372 188.126 44.9397 188.032 47.5768C187.939 50.2139 188.163 52.8106 188.707 55.3668C189.561 59.3837 191.191 62.3087 193.598 64.1416C196.046 65.9113 199.018 66.4247 202.513 65.6817C205.852 64.972 208.475 63.0785 210.384 60.0011C212.293 56.9237 213.419 53.6309 213.764 50.1225C214.109 46.6142 213.937 43.2428 213.25 40.0084C212.452 36.2523 210.948 33.4095 208.738 31.48C206.529 29.5506 203.598 28.974 199.946 29.7502Z" fill="black"/>
<path d="M280.377 1.69472L280.403 59.9216L265.927 62.9987L265.934 41.487L260.77 42.5848L246.755 67.0737L228.287 70.9991L245.389 44.8725C238.145 44.3949 233.697 40.2696 232.044 32.4966C231.324 29.1057 231.383 25.7943 232.223 22.5624C233.115 19.3195 234.688 16.5861 236.941 14.3623C239.918 11.4394 245.007 9.2128 252.206 7.68257L280.377 1.69472ZM265.791 16.5723L254.288 19.0174C247.819 20.3924 245.128 23.6361 246.215 28.7485C246.714 31.0961 247.751 32.5114 249.326 32.9945C250.942 33.4144 253.132 33.3305 255.897 32.7428L265.835 30.6304L265.791 16.5723Z" fill="black"/>
<path d="M535.26 506.368C535.87 509.237 535.366 512.125 533.748 515.031C532.171 517.874 530.015 519.914 527.279 521.15C529.559 521.102 531.729 521.949 533.79 523.692C535.891 525.372 537.247 527.646 537.857 530.515C539.221 536.932 537.823 542.409 533.662 546.947C529.542 551.421 523.987 554.401 516.996 555.887C509.954 557.384 503.972 557.074 499.051 554.958C494.182 552.83 491.066 548.558 489.702 542.141C489.624 541.776 489.578 541.431 489.564 541.107L503.884 538.064L503.901 538.142C505.132 543.932 509.06 546.124 515.685 544.715C518.554 544.106 520.726 542.908 522.2 541.122C523.727 539.326 524.224 537.175 523.692 534.671C523.292 532.793 522.283 531.508 520.664 530.816C519.034 530.072 516.993 529.961 514.541 530.482L509.376 531.58L508.779 521.075C509.897 520.946 511.316 520.699 513.038 520.333C515.542 519.801 517.637 518.756 519.323 517.198C520.998 515.587 521.586 513.609 521.087 511.261C520.788 509.853 519.829 508.802 518.21 508.111C516.631 507.356 514.851 507.189 512.869 507.61C509.947 508.231 507.701 509.335 506.13 510.923C504.549 512.459 503.886 514.345 504.143 516.58L490.293 519.524C489.833 513.515 491.525 508.521 495.368 504.542C499.253 500.499 504.768 497.718 511.915 496.199C518.071 494.89 523.247 495.126 527.442 496.906C531.678 498.623 534.284 501.777 535.26 506.368Z" fill="black"/>
<path d="M571.121 485.005L592.041 538.791L577.486 541.884L573.915 532.011L554.431 536.153L550.881 547.54L535.543 550.8L556.488 488.115L571.121 485.005ZM563.936 501.99C563.308 505.449 562.022 510.303 560.079 516.55L557.68 524.503L570.513 521.775L568.027 514.697C565.903 508.551 564.539 504.315 563.936 501.99Z" fill="black"/>
<path d="M642.968 471.124L643.025 527.954L629.017 530.931L629.016 494.372C627.869 494.616 626.132 495.04 623.807 495.643C621.534 496.235 619.823 496.654 618.676 496.898L615.937 497.48L616.049 487.232C620.744 486.234 624.304 484.769 626.728 482.836C629.141 480.851 630.903 477.723 632.012 473.452L642.968 471.124Z" fill="black"/>
<path d="M734.306 522.864L720.69 525.758L720.675 511.449L688.279 518.335L688.294 532.644L674.678 535.538L674.745 508.534L680.536 507.303C682.796 503.061 684.6 496.925 685.947 488.896C687.335 480.804 688.042 473.484 688.067 466.935L688.095 460.141L727.926 451.675L727.956 497.224L734.373 495.86L734.306 522.864ZM713.715 500.251L713.63 467.145L701.735 469.673L701.72 472.294C701.7 477.587 701.151 483.211 700.072 489.165C698.982 495.068 697.608 500.021 695.951 504.027L713.715 500.251Z" fill="black"/>
<path d="M780.379 440.526L780.449 452.779L750.635 459.116L750.646 469.173L778.269 463.302L778.316 475.069L750.693 480.941L750.675 492.395L781.114 485.925L781.11 498.603L736.194 508.15L736.167 449.923L780.379 440.526Z" fill="black"/>
<path d="M833.948 429.139L833.975 487.366L819.342 490.476L819.303 466.439L799.975 470.547L799.935 494.601L785.302 497.712L785.276 439.485L799.909 436.374L799.913 457.556L819.319 453.431L819.315 432.249L833.948 429.139Z" fill="black"/>
<path d="M886.411 454.628C887.165 458.176 887.066 461.687 886.114 465.16C885.203 468.571 883.575 471.425 881.228 473.723C878.012 476.806 872.752 479.124 865.449 480.676L839.469 486.198L839.442 427.971L853.997 424.878L854.043 444.333L863.668 442.287C876.502 439.559 884.082 443.673 886.411 454.628ZM872.167 458.801C871.646 456.349 870.546 454.893 868.867 454.432C867.188 453.971 864.966 454.034 862.201 454.622L854.063 456.352L854.05 470.913L863.909 468.817C870.535 467.409 873.287 464.07 872.167 458.801Z" fill="black"/>
<path d="M903.48 458.525L903.524 472.583L889.83 475.494L889.786 461.436L903.48 458.525ZM903.497 414.356L903.512 428.666L899.805 454.317L893.466 455.664L889.728 431.923L889.646 417.3L903.497 414.356Z" fill="black"/>
<path d="M240.69 399.045L240.68 429.155L202.396 437.292L202.283 545.511L167.529 552.898L167.642 444.68L128.056 453.094L128.066 422.984L240.69 399.045Z" fill="black"/>
<path d="M245.686 397.983L301.998 386.013C332.477 379.535 350.482 389.305 356.013 415.324C357.803 423.749 357.568 432.086 355.308 440.337C353.145 448.437 349.276 455.216 343.703 460.674C336.312 467.943 323.82 473.447 306.227 477.187L280.208 482.717L280.317 528.924L245.75 536.272L245.686 397.983ZM280.086 420.002L280.241 454.544L303.472 449.607C319.207 446.262 325.745 438.333 323.085 425.819C321.847 419.996 319.235 416.537 315.246 415.442C311.258 414.347 305.981 414.498 299.414 415.894L280.086 420.002Z" fill="black"/>
<path d="M469.739 350.359L469.903 379.461L399.095 394.511L399.122 418.398L464.727 404.453L464.84 432.4L399.235 446.345L399.19 473.549L471.485 458.182L471.475 488.292L364.798 510.967L364.735 372.678L469.739 350.359Z" fill="black"/>
<path d="M596.965 323.316L597.029 461.605L562.275 468.992L562.184 411.904L516.279 421.661L516.185 478.789L481.431 486.176L481.368 347.887L516.121 340.5L516.131 390.807L562.221 381.011L562.212 330.703L596.965 323.316Z" fill="black"/>
<path d="M724.31 296.248L724.374 434.537L690.735 441.687L693.197 349.092L650.778 450.18L610.077 458.831L610.014 320.543L643.652 313.393L642.491 405.711L684.725 304.662L724.31 296.248Z" fill="black"/>
<path d="M853.886 268.706L853.949 406.995L819.195 414.382L819.104 357.293L773.2 367.051L773.105 424.179L738.351 431.566L738.288 293.277L773.042 285.89L773.051 336.197L819.142 326.401L819.132 276.093L853.886 268.706Z" fill="black"/>
<path d="M867.555 404.103L867.492 265.814L965.248 245.035L965.238 275.145L902.235 288.537L902.309 396.716L867.555 404.103Z" fill="black"/>
<path d="M157.435 257.974L105.449 325.938L161.401 395.433L122.187 403.769L83.095 354.193L68.6392 372.999L68.6624 415.145L34.0946 422.493L34.0314 284.204L68.5991 276.857L67.8331 330.825L111.716 267.692L157.435 257.974Z" fill="black"/>
<path d="M281.955 287.449C285.168 302.565 285.242 316.923 282.176 330.524C279.084 344.002 272.642 355.731 262.849 365.711C253.031 375.568 240.502 382.116 225.262 385.356C206.677 389.306 191.15 387.232 178.681 379.134C166.185 370.913 157.936 357.386 153.933 338.553C149.087 315.756 151.823 295.426 162.142 277.564C172.434 259.577 188.793 248.201 211.218 243.434C229.06 239.642 244.361 241.569 257.123 249.216C269.886 256.863 278.163 269.608 281.955 287.449ZM215.471 271.667C209.028 273.036 203.623 275.934 199.254 280.359C194.983 284.633 191.926 289.751 190.085 295.71C188.368 301.644 187.398 307.742 187.175 314.005C186.953 320.268 187.487 326.435 188.777 332.506C190.805 342.047 194.677 348.993 200.394 353.347C206.208 357.55 213.266 358.769 221.567 357.004C229.496 355.319 235.728 350.822 240.26 343.513C244.793 336.204 247.469 328.384 248.288 320.051C249.107 311.719 248.7 303.712 247.067 296.03C245.171 287.109 241.599 280.358 236.352 275.775C231.104 271.193 224.144 269.823 215.471 271.667Z" fill="black"/>
<path d="M440.875 197.727L440.938 336.016L408.229 342.968L408.62 282.669C408.703 264.781 409.27 247.956 410.323 232.192C406.486 251.914 402.699 268.518 398.961 282.003L380.351 348.894L353.775 354.543L334.645 294.702C330.72 282.328 326.869 267.866 323.093 251.316C324.431 265.535 325.169 282.407 325.305 301.933L325.712 360.508L293.003 367.46L292.94 229.172L341.26 218.901L356.477 269.472C361.711 287.396 365.049 301.578 366.492 312.02C366.595 297.883 370.227 278.722 377.389 254.538L391.067 208.314L440.875 197.727Z" fill="black"/>
<path d="M569.255 170.439L569.318 308.728L535.68 315.878L538.142 223.283L495.722 324.371L455.022 333.022L454.958 194.733L488.597 187.583L487.436 279.902L529.669 178.853L569.255 170.439Z" fill="black"/>
<path d="M707.937 140.961L655.951 208.925L711.903 278.42L672.689 286.756L633.597 237.18L619.141 255.986L619.165 298.133L584.597 305.48L584.534 167.191L619.101 159.844L618.335 213.812L662.218 150.679L707.937 140.961Z" fill="black"/>
<path d="M828.038 202.649C828.222 219.962 823.638 234.34 814.285 245.781C804.933 257.222 791.708 264.76 774.61 268.394C756.521 272.239 741.303 270.099 728.958 261.975C716.736 253.825 708.637 240.395 704.66 221.687C699.815 198.889 702.29 178.55 712.086 160.669C721.883 142.788 737.746 131.517 759.676 126.856C776.279 123.327 790.395 124.859 802.027 131.451C813.756 137.893 821.161 148.362 824.242 162.858L824.874 165.832L791.422 172.943C787.864 158.03 778.836 152.114 764.34 155.195C756.287 156.907 750.016 161.218 745.528 168.129C741.04 175.04 738.409 182.463 737.635 190.397C736.985 198.305 737.49 206.162 739.149 213.967C741.282 224.003 745.11 231.348 750.631 236.001C756.25 240.505 763.086 241.901 771.14 240.189C778.078 238.714 783.467 235.432 787.306 230.343C791.119 225.129 793.174 218.347 793.47 209.996L828.038 202.649Z" fill="black"/>
</g>
<defs>
<filter id="filter0_d" x="0.336304" y="0.442688" width="993.038" height="579.999" filterUnits="userSpaceOnUse" color-interpolation-filters="sRGB">
<feFlood flood-opacity="0" result="BackgroundImageFix"/>
<feColorMatrix in="SourceAlpha" type="matrix" values="0 0 0 0 0 0 0 0 0 0 0 0 0 0 0 0 0 0 127 0"/>
<feOffset dx="-5" dy="7"/>
<feColorMatrix type="matrix" values="0 0 0 0 1 0 0 0 0 1 0 0 0 0 1 0 0 0 1 0"/>
<feBlend mode="normal" in2="BackgroundImageFix" result="effect1_dropShadow"/>
<feBlend mode="normal" in="SourceGraphic" in2="effect1_dropShadow" result="shape"/>
</filter>
</defs>
</svg>
