<svg width="100" height="100" viewBox="0 0 100 100" fill="none" xmlns="http://www.w3.org/2000/svg">
<path d="M100 71.8781C100 59.6375 92.1689 49.2531 81.2564 45.3875V12.5H75.0064V6.24687H81.2564V0H9.38136C9.11886 0.0125 7.16886 -0.025 4.86261 1.10625C2.52511 2.14375 -0.106138 5.14062 0.00323725 9.375C0.00323725 9.39375 0.00636225 9.4125 0.00636225 9.43125V93.75C0.00636225 100 6.25636 100 6.25636 100H72.1345L72.1126 99.9875C87.5439 99.8594 100 87.3281 100 71.8781ZM8.91574 12.4406C8.35949 12.3594 7.55636 12.0906 7.10636 11.6969C6.67511 11.2781 6.30324 10.9375 6.25636 9.375C6.35949 7.35625 6.86261 7.23125 7.65324 6.7C8.05949 6.49688 8.55636 6.36563 8.91574 6.30938C9.28136 6.24063 9.37511 6.26562 9.38136 6.24687H68.7564V12.5H9.38136C9.37511 12.5 9.28136 12.5062 8.91574 12.4406ZM12.5001 93.75V18.75H75.0001V43.9375C73.972 43.8219 72.9282 43.75 71.8689 43.75C65.172 43.75 59.0407 46.0969 54.2126 50H18.7501V56.25H48.4876C47.197 58.175 46.1657 60.2781 45.3782 62.5H18.7501V68.75H43.9282C43.8157 69.7781 43.7439 70.8187 43.7439 71.8781C43.7439 80.7187 47.8282 88.6 54.2064 93.75H12.5001ZM71.8751 93.75C59.797 93.725 50.0189 83.9531 50.0001 71.8781C50.0189 59.8 59.797 50.0188 71.8751 50C83.9532 50.0188 93.7251 59.8 93.7501 71.8781C93.7251 83.9531 83.9532 93.725 71.8751 93.75Z" fill="white"/>
<path d="M68.75 37.5H18.75V43.75H68.75V37.5Z" fill="white"/>
<path d="M81.5265 71.792L69.0265 59.292L69.0266 84.292L81.5265 71.792Z" fill="white"/>
</svg>
