<svg width="102" height="102" viewBox="0 0 102 102" fill="none" xmlns="http://www.w3.org/2000/svg">
<mask id="path-1-outside-1" maskUnits="userSpaceOnUse" x="0" y="0" width="102" height="102" fill="black">
<rect fill="white" width="102" height="102"/>
<path d="M98.708 101C98.248 100.5 97.76 100.024 97.336 99.496C93.16 94.304 88.992 89.108 84.856 83.888C84.544 83.492 84.36 82.892 84.356 82.388C84.324 75.932 84.328 69.476 84.336 63.024C84.34 60.944 83.916 58.972 83.036 57.08C81.904 54.628 80.304 52.504 78.508 50.52C77.24 49.12 75.928 47.768 74.636 46.396C74.536 46.472 74.436 46.548 74.336 46.624C74.336 46.892 74.336 47.164 74.336 47.432C74.336 52.74 74.46 58.056 74.28 63.36C74.192 65.896 74.616 67.972 76.804 69.448C76.944 69.544 77.06 69.684 77.168 69.816C77.76 70.532 77.768 71.48 77.196 72.084C76.584 72.732 75.74 72.8 74.944 72.236C74.66 72.036 74.42 71.78 74.176 71.536C71.156 68.52 68.148 65.488 65.112 62.488C63.804 61.192 61.756 61.064 60.592 62.148C59.504 63.16 59.496 65.096 60.568 66.52C63.688 70.684 66.776 74.876 69.956 78.992C70.752 80.024 71.144 81.04 71.004 82.312C70.74 84.764 71.416 87.024 72.7 89.052C74.568 92.004 76.552 94.892 78.564 97.752C79.6 99.228 79.564 99.96 78.084 101C77.736 101 77.392 101 77.044 101C76.8 100.768 76.524 100.564 76.32 100.304C73.536 96.752 70.776 93.168 68.964 88.996C68.524 87.976 68.064 87.636 66.956 87.64C47.408 87.68 27.86 87.684 8.316 87.632C7.076 87.632 5.764 87.324 4.612 86.844C2.536 85.98 1.584 84.112 1 82.044C1 56.904 1 31.764 1 6.624C1.22 6.016 1.396 5.392 1.668 4.808C2.652 2.68 4.456 1.596 6.624 1C27.32 1 48.012 1 68.708 1C73.18 2.224 74.416 5.364 74.376 9.148C74.256 19.768 74.34 30.388 74.32 41.004C74.32 41.648 74.488 42.08 74.992 42.512C78.052 45.136 80.956 47.924 83.368 51.172C86.032 54.764 87.74 58.68 87.688 63.276C87.616 69.28 87.66 75.28 87.692 81.284C87.696 81.752 87.884 82.308 88.176 82.676C90.856 86.084 93.588 89.452 96.284 92.848C97.876 94.856 99.428 96.896 101 98.916C101 99.612 101 100.308 101 101C100.236 101 99.472 101 98.708 101ZM60.928 58.248C60.928 43.584 60.928 28.984 60.928 14.416C45.356 14.416 29.86 14.416 14.36 14.416C14.36 33.28 14.36 52.06 14.36 70.912C29.492 70.912 44.52 70.912 59.688 70.912C58.048 68.728 56.168 66.824 56.428 63.908C56.688 60.992 58.188 59.104 60.928 58.248ZM71 62.564C71 44.436 71 26.312 70.996 8.188C70.996 5.656 69.68 4.336 67.144 4.336C47.492 4.332 27.84 4.332 8.192 4.336C5.644 4.336 4.34 5.64 4.336 8.184C4.328 11.728 4.336 15.268 4.336 18.808C4.336 39.292 4.332 59.78 4.34 80.264C4.34 83.104 5.584 84.332 8.388 84.332C27.728 84.332 47.064 84.332 66.404 84.332C66.808 84.332 67.208 84.332 67.548 84.332C67.92 82.556 67.576 81.176 66.452 79.88C65.112 78.336 63.996 76.604 62.716 75.004C62.444 74.664 61.888 74.364 61.46 74.364C47.436 74.328 33.408 74.34 19.38 74.34C16.616 74.34 13.848 74.34 11.064 74.34C11.064 53.168 11.064 32.116 11.064 11.076C28.856 11.076 46.576 11.076 64.348 11.076C64.348 26.848 64.348 42.536 64.348 57.884C65.648 58.848 66.804 59.6 67.828 60.5C68.868 61.412 69.78 62.468 70.748 63.464C70.832 63.428 70.916 63.396 71 63.364C71 63.096 71 62.828 71 62.564ZM26.04 77.684C26.92 77.708 27.676 78.504 27.648 79.372C27.62 80.252 26.832 81.004 25.96 80.984C25.088 80.968 24.328 80.168 24.348 79.292C24.372 78.42 25.172 77.66 26.04 77.684ZM44.292 80.948C39.884 80.948 35.528 80.948 31.08 80.948C31.08 79.92 31.08 78.868 31.08 77.736C35.436 77.736 39.82 77.736 44.292 77.736C44.292 78.836 44.292 79.864 44.292 80.948ZM49.348 77.676C50.212 77.688 50.988 78.476 50.984 79.348C50.984 80.228 50.204 81 49.324 80.984C48.448 80.972 47.672 80.188 47.676 79.324C47.684 78.46 48.488 77.668 49.348 77.676ZM22.712 41.072C32.66 41.072 42.596 41.072 52.62 41.072C52.62 42.164 52.62 43.192 52.62 44.28C42.64 44.28 32.704 44.28 22.712 44.28C22.712 43.208 22.712 42.18 22.712 41.072ZM22.684 27.74C32.648 27.74 42.584 27.74 52.596 27.74C52.596 28.772 52.596 29.824 52.596 30.944C42.648 30.944 32.712 30.944 22.684 30.944C22.684 29.828 22.684 28.824 22.684 27.74ZM22.744 21.064C28.216 21.064 33.712 21.064 39.284 21.064C39.284 22.172 39.284 23.2 39.284 24.284C33.768 24.284 28.3 24.284 22.744 24.284C22.744 23.248 22.744 22.192 22.744 21.064ZM52.584 37.596C42.672 37.596 32.732 37.596 22.712 37.596C22.712 36.496 22.712 35.468 22.712 34.384C32.672 34.384 42.584 34.384 52.584 34.384C52.584 35.412 52.584 36.464 52.584 37.596ZM52.588 50.932C42.668 50.932 32.732 50.932 22.712 50.932C22.712 49.828 22.712 48.8 22.712 47.716C32.676 47.716 42.588 47.716 52.588 47.716C52.588 48.752 52.588 49.804 52.588 50.932ZM52.588 57.604C42.672 57.604 32.732 57.604 22.712 57.604C22.712 56.492 22.712 55.46 22.712 54.38C32.676 54.38 42.588 54.38 52.588 54.38C52.588 55.42 52.588 56.472 52.588 57.604Z"/>
</mask>
<path d="M98.708 101C98.248 100.5 97.76 100.024 97.336 99.496C93.16 94.304 88.992 89.108 84.856 83.888C84.544 83.492 84.36 82.892 84.356 82.388C84.324 75.932 84.328 69.476 84.336 63.024C84.34 60.944 83.916 58.972 83.036 57.08C81.904 54.628 80.304 52.504 78.508 50.52C77.24 49.12 75.928 47.768 74.636 46.396C74.536 46.472 74.436 46.548 74.336 46.624C74.336 46.892 74.336 47.164 74.336 47.432C74.336 52.74 74.46 58.056 74.28 63.36C74.192 65.896 74.616 67.972 76.804 69.448C76.944 69.544 77.06 69.684 77.168 69.816C77.76 70.532 77.768 71.48 77.196 72.084C76.584 72.732 75.74 72.8 74.944 72.236C74.66 72.036 74.42 71.78 74.176 71.536C71.156 68.52 68.148 65.488 65.112 62.488C63.804 61.192 61.756 61.064 60.592 62.148C59.504 63.16 59.496 65.096 60.568 66.52C63.688 70.684 66.776 74.876 69.956 78.992C70.752 80.024 71.144 81.04 71.004 82.312C70.74 84.764 71.416 87.024 72.7 89.052C74.568 92.004 76.552 94.892 78.564 97.752C79.6 99.228 79.564 99.96 78.084 101C77.736 101 77.392 101 77.044 101C76.8 100.768 76.524 100.564 76.32 100.304C73.536 96.752 70.776 93.168 68.964 88.996C68.524 87.976 68.064 87.636 66.956 87.64C47.408 87.68 27.86 87.684 8.316 87.632C7.076 87.632 5.764 87.324 4.612 86.844C2.536 85.98 1.584 84.112 1 82.044C1 56.904 1 31.764 1 6.624C1.22 6.016 1.396 5.392 1.668 4.808C2.652 2.68 4.456 1.596 6.624 1C27.32 1 48.012 1 68.708 1C73.18 2.224 74.416 5.364 74.376 9.148C74.256 19.768 74.34 30.388 74.32 41.004C74.32 41.648 74.488 42.08 74.992 42.512C78.052 45.136 80.956 47.924 83.368 51.172C86.032 54.764 87.74 58.68 87.688 63.276C87.616 69.28 87.66 75.28 87.692 81.284C87.696 81.752 87.884 82.308 88.176 82.676C90.856 86.084 93.588 89.452 96.284 92.848C97.876 94.856 99.428 96.896 101 98.916C101 99.612 101 100.308 101 101C100.236 101 99.472 101 98.708 101ZM60.928 58.248C60.928 43.584 60.928 28.984 60.928 14.416C45.356 14.416 29.86 14.416 14.36 14.416C14.36 33.28 14.36 52.06 14.36 70.912C29.492 70.912 44.52 70.912 59.688 70.912C58.048 68.728 56.168 66.824 56.428 63.908C56.688 60.992 58.188 59.104 60.928 58.248ZM71 62.564C71 44.436 71 26.312 70.996 8.188C70.996 5.656 69.68 4.336 67.144 4.336C47.492 4.332 27.84 4.332 8.192 4.336C5.644 4.336 4.34 5.64 4.336 8.184C4.328 11.728 4.336 15.268 4.336 18.808C4.336 39.292 4.332 59.78 4.34 80.264C4.34 83.104 5.584 84.332 8.388 84.332C27.728 84.332 47.064 84.332 66.404 84.332C66.808 84.332 67.208 84.332 67.548 84.332C67.92 82.556 67.576 81.176 66.452 79.88C65.112 78.336 63.996 76.604 62.716 75.004C62.444 74.664 61.888 74.364 61.46 74.364C47.436 74.328 33.408 74.34 19.38 74.34C16.616 74.34 13.848 74.34 11.064 74.34C11.064 53.168 11.064 32.116 11.064 11.076C28.856 11.076 46.576 11.076 64.348 11.076C64.348 26.848 64.348 42.536 64.348 57.884C65.648 58.848 66.804 59.6 67.828 60.5C68.868 61.412 69.78 62.468 70.748 63.464C70.832 63.428 70.916 63.396 71 63.364C71 63.096 71 62.828 71 62.564ZM26.04 77.684C26.92 77.708 27.676 78.504 27.648 79.372C27.62 80.252 26.832 81.004 25.96 80.984C25.088 80.968 24.328 80.168 24.348 79.292C24.372 78.42 25.172 77.66 26.04 77.684ZM44.292 80.948C39.884 80.948 35.528 80.948 31.08 80.948C31.08 79.92 31.08 78.868 31.08 77.736C35.436 77.736 39.82 77.736 44.292 77.736C44.292 78.836 44.292 79.864 44.292 80.948ZM49.348 77.676C50.212 77.688 50.988 78.476 50.984 79.348C50.984 80.228 50.204 81 49.324 80.984C48.448 80.972 47.672 80.188 47.676 79.324C47.684 78.46 48.488 77.668 49.348 77.676ZM22.712 41.072C32.66 41.072 42.596 41.072 52.62 41.072C52.62 42.164 52.62 43.192 52.62 44.28C42.64 44.28 32.704 44.28 22.712 44.28C22.712 43.208 22.712 42.18 22.712 41.072ZM22.684 27.74C32.648 27.74 42.584 27.74 52.596 27.74C52.596 28.772 52.596 29.824 52.596 30.944C42.648 30.944 32.712 30.944 22.684 30.944C22.684 29.828 22.684 28.824 22.684 27.74ZM22.744 21.064C28.216 21.064 33.712 21.064 39.284 21.064C39.284 22.172 39.284 23.2 39.284 24.284C33.768 24.284 28.3 24.284 22.744 24.284C22.744 23.248 22.744 22.192 22.744 21.064ZM52.584 37.596C42.672 37.596 32.732 37.596 22.712 37.596C22.712 36.496 22.712 35.468 22.712 34.384C32.672 34.384 42.584 34.384 52.584 34.384C52.584 35.412 52.584 36.464 52.584 37.596ZM52.588 50.932C42.668 50.932 32.732 50.932 22.712 50.932C22.712 49.828 22.712 48.8 22.712 47.716C32.676 47.716 42.588 47.716 52.588 47.716C52.588 48.752 52.588 49.804 52.588 50.932ZM52.588 57.604C42.672 57.604 32.732 57.604 22.712 57.604C22.712 56.492 22.712 55.46 22.712 54.38C32.676 54.38 42.588 54.38 52.588 54.38C52.588 55.42 52.588 56.472 52.588 57.604Z" fill="white"/>
<path d="M98.708 101C98.248 100.5 97.76 100.024 97.336 99.496C93.16 94.304 88.992 89.108 84.856 83.888C84.544 83.492 84.36 82.892 84.356 82.388C84.324 75.932 84.328 69.476 84.336 63.024C84.34 60.944 83.916 58.972 83.036 57.08C81.904 54.628 80.304 52.504 78.508 50.52C77.24 49.12 75.928 47.768 74.636 46.396C74.536 46.472 74.436 46.548 74.336 46.624C74.336 46.892 74.336 47.164 74.336 47.432C74.336 52.74 74.46 58.056 74.28 63.36C74.192 65.896 74.616 67.972 76.804 69.448C76.944 69.544 77.06 69.684 77.168 69.816C77.76 70.532 77.768 71.48 77.196 72.084C76.584 72.732 75.74 72.8 74.944 72.236C74.66 72.036 74.42 71.78 74.176 71.536C71.156 68.52 68.148 65.488 65.112 62.488C63.804 61.192 61.756 61.064 60.592 62.148C59.504 63.16 59.496 65.096 60.568 66.52C63.688 70.684 66.776 74.876 69.956 78.992C70.752 80.024 71.144 81.04 71.004 82.312C70.74 84.764 71.416 87.024 72.7 89.052C74.568 92.004 76.552 94.892 78.564 97.752C79.6 99.228 79.564 99.96 78.084 101C77.736 101 77.392 101 77.044 101C76.8 100.768 76.524 100.564 76.32 100.304C73.536 96.752 70.776 93.168 68.964 88.996C68.524 87.976 68.064 87.636 66.956 87.64C47.408 87.68 27.86 87.684 8.316 87.632C7.076 87.632 5.764 87.324 4.612 86.844C2.536 85.98 1.584 84.112 1 82.044C1 56.904 1 31.764 1 6.624C1.22 6.016 1.396 5.392 1.668 4.808C2.652 2.68 4.456 1.596 6.624 1C27.32 1 48.012 1 68.708 1C73.18 2.224 74.416 5.364 74.376 9.148C74.256 19.768 74.34 30.388 74.32 41.004C74.32 41.648 74.488 42.08 74.992 42.512C78.052 45.136 80.956 47.924 83.368 51.172C86.032 54.764 87.74 58.68 87.688 63.276C87.616 69.28 87.66 75.28 87.692 81.284C87.696 81.752 87.884 82.308 88.176 82.676C90.856 86.084 93.588 89.452 96.284 92.848C97.876 94.856 99.428 96.896 101 98.916C101 99.612 101 100.308 101 101C100.236 101 99.472 101 98.708 101ZM60.928 58.248C60.928 43.584 60.928 28.984 60.928 14.416C45.356 14.416 29.86 14.416 14.36 14.416C14.36 33.28 14.36 52.06 14.36 70.912C29.492 70.912 44.52 70.912 59.688 70.912C58.048 68.728 56.168 66.824 56.428 63.908C56.688 60.992 58.188 59.104 60.928 58.248ZM71 62.564C71 44.436 71 26.312 70.996 8.188C70.996 5.656 69.68 4.336 67.144 4.336C47.492 4.332 27.84 4.332 8.192 4.336C5.644 4.336 4.34 5.64 4.336 8.184C4.328 11.728 4.336 15.268 4.336 18.808C4.336 39.292 4.332 59.78 4.34 80.264C4.34 83.104 5.584 84.332 8.388 84.332C27.728 84.332 47.064 84.332 66.404 84.332C66.808 84.332 67.208 84.332 67.548 84.332C67.92 82.556 67.576 81.176 66.452 79.88C65.112 78.336 63.996 76.604 62.716 75.004C62.444 74.664 61.888 74.364 61.46 74.364C47.436 74.328 33.408 74.34 19.38 74.34C16.616 74.34 13.848 74.34 11.064 74.34C11.064 53.168 11.064 32.116 11.064 11.076C28.856 11.076 46.576 11.076 64.348 11.076C64.348 26.848 64.348 42.536 64.348 57.884C65.648 58.848 66.804 59.6 67.828 60.5C68.868 61.412 69.78 62.468 70.748 63.464C70.832 63.428 70.916 63.396 71 63.364C71 63.096 71 62.828 71 62.564ZM26.04 77.684C26.92 77.708 27.676 78.504 27.648 79.372C27.62 80.252 26.832 81.004 25.96 80.984C25.088 80.968 24.328 80.168 24.348 79.292C24.372 78.42 25.172 77.66 26.04 77.684ZM44.292 80.948C39.884 80.948 35.528 80.948 31.08 80.948C31.08 79.92 31.08 78.868 31.08 77.736C35.436 77.736 39.82 77.736 44.292 77.736C44.292 78.836 44.292 79.864 44.292 80.948ZM49.348 77.676C50.212 77.688 50.988 78.476 50.984 79.348C50.984 80.228 50.204 81 49.324 80.984C48.448 80.972 47.672 80.188 47.676 79.324C47.684 78.46 48.488 77.668 49.348 77.676ZM22.712 41.072C32.66 41.072 42.596 41.072 52.62 41.072C52.62 42.164 52.62 43.192 52.62 44.28C42.64 44.28 32.704 44.28 22.712 44.28C22.712 43.208 22.712 42.18 22.712 41.072ZM22.684 27.74C32.648 27.74 42.584 27.74 52.596 27.74C52.596 28.772 52.596 29.824 52.596 30.944C42.648 30.944 32.712 30.944 22.684 30.944C22.684 29.828 22.684 28.824 22.684 27.74ZM22.744 21.064C28.216 21.064 33.712 21.064 39.284 21.064C39.284 22.172 39.284 23.2 39.284 24.284C33.768 24.284 28.3 24.284 22.744 24.284C22.744 23.248 22.744 22.192 22.744 21.064ZM52.584 37.596C42.672 37.596 32.732 37.596 22.712 37.596C22.712 36.496 22.712 35.468 22.712 34.384C32.672 34.384 42.584 34.384 52.584 34.384C52.584 35.412 52.584 36.464 52.584 37.596ZM52.588 50.932C42.668 50.932 32.732 50.932 22.712 50.932C22.712 49.828 22.712 48.8 22.712 47.716C32.676 47.716 42.588 47.716 52.588 47.716C52.588 48.752 52.588 49.804 52.588 50.932ZM52.588 57.604C42.672 57.604 32.732 57.604 22.712 57.604C22.712 56.492 22.712 55.46 22.712 54.38C32.676 54.38 42.588 54.38 52.588 54.38C52.588 55.42 52.588 56.472 52.588 57.604Z" stroke="white" mask="url(#path-1-outside-1)"/>
</svg>
