<svg width="89" height="106" viewBox="0 0 89 106" fill="none" xmlns="http://www.w3.org/2000/svg">
<path d="M53.8899 61.7793H63.1379L70.7345 60.1912L75.4096 55.6018L73.5365 50.7239C73.3383 50.7684 50.43 55.1198 50.43 55.1198L49.6512 57.4244L51.2076 59.8382L53.8899 61.7793Z" fill="white"/>
<path d="M86.5928 17.8451C86.5635 16.6523 86.0087 15.6307 85.3754 14.6948C79.9943 6.74982 64.0727 0 44.1223 0C24.1028 0 8.0897 6.75216 2.82473 14.7827C2.2254 15.6964 1.70934 16.6933 1.68119 17.8463L0.00165217 86.7049C0.00165217 86.7167 0.00399884 86.7284 0.00399884 86.7401L0.00165217 86.8304C-0.0652009 89.5925 1.90521 92.798 4.38229 94.0236L22.605 103.064C25.0821 104.29 29.3701 105.382 32.1334 105.382H56.1395C58.9027 105.382 63.1907 104.292 65.6678 103.068L83.8905 93.999C86.3676 92.7733 88.3392 89.494 88.2712 86.7319L86.5928 17.8451ZM7.70031 59.1415L12.2182 46.0676L8.53539 24.8459L8.68669 18.6544C8.69021 18.6485 8.69373 18.6426 8.69842 18.6368C11.2212 14.7886 18.4261 10.7739 28.5139 8.62405C30.0914 14.8426 34.0041 29.4294 35.985 29.4294C38.4926 29.4294 49.7849 29.4294 52.2925 29.4294C54.2723 29.4294 58.1849 14.8426 59.7636 8.62405C69.8514 10.7739 77.0563 14.7886 79.5791 18.6368C79.5838 18.6426 79.5873 18.6485 79.5908 18.6544L79.7421 24.8459L76.0594 46.0676L80.5772 59.1415L80.7743 67.2472C79.1686 69.2211 70.0555 80.6342 70.0555 80.6342V85.0418L63.1157 88.6683L59.0447 84.5973H29.2317L25.1607 88.6683L18.2209 85.0418V80.6342C18.2209 80.6342 9.10892 69.2211 7.5021 67.2472L7.70031 59.1415ZM80.7672 87.7183L62.5515 96.7564C61.2954 97.378 59.0212 98.0019 57.337 98.2388V97.765C57.337 97.765 57.337 96.9862 56.9581 96.6449C56.3635 96.1101 52.8437 93.7198 52.1776 93.7198C51.5114 93.7198 36.7732 93.7198 36.107 93.7198C35.4408 93.7198 31.9211 96.1089 31.3264 96.6449C30.9476 96.9862 30.9476 97.765 30.9476 97.765V98.2388C29.2634 98.0019 26.9892 97.378 25.7331 96.7564L7.51735 87.7183C7.39889 87.6198 7.11271 87.1635 7.04586 86.8926L7.37778 73.2557L14.1745 80.5451V86.312L25.6732 91.8444L29.6774 87.5834H58.6084L62.6125 91.8444L74.1112 86.312V80.5451L80.908 73.2557L81.2399 86.8926C81.1719 87.1635 80.8857 87.6186 80.7672 87.7183Z" fill="white"/>
<path d="M34.3888 61.7793L37.0699 59.8382L38.6263 57.4244L37.8475 55.1198C37.8475 55.1198 14.9404 50.7684 14.741 50.7239L12.8679 55.6018L17.5429 60.1912L25.1396 61.7793H34.3888Z" fill="white"/>
</svg>
