<svg width="16" height="17" viewBox="0 0 16 17" fill="none" xmlns="http://www.w3.org/2000/svg">
<path d="M0.225 2.13798C-0.075 1.83799 -0.075 1.3387 0.225 1.02822C0.53549 0.728224 1.0243 0.728224 1.33479 1.02822L7.99424 7.6987L14.6649 1.02822C14.9649 0.728224 15.4642 0.728224 15.7635 1.02822C16.074 1.3387 16.074 1.83869 15.7635 2.13798L9.10403 8.79798L15.7635 15.4685C16.074 15.7685 16.074 16.2677 15.7635 16.5782C15.4635 16.8782 14.9642 16.8782 14.6649 16.5782L7.99424 9.90775L1.33479 16.5782C1.0243 16.8782 0.53549 16.8782 0.225 16.5782C-0.075 16.2677 -0.075 15.7678 0.225 15.4685L6.88445 8.79798L0.225 2.13798Z" fill="#1E201D"/>
</svg>
