<svg width="80" height="81" viewBox="0 0 80 81" fill="none" xmlns="http://www.w3.org/2000/svg">
<path d="M40 70.9053C56.5685 70.9053 70 57.4739 70 40.9053C70 24.3368 56.5685 10.9053 40 10.9053C23.4315 10.9053 10 24.3368 10 40.9053C10 57.4739 23.4315 70.9053 40 70.9053Z" stroke="black" stroke-width="5" stroke-linecap="round" stroke-linejoin="round"/>
<path d="M49.3333 30.9053C48.7295 29.8578 47.8522 28.9943 46.7953 28.4071C45.7384 27.82 44.5417 27.5313 43.3333 27.572H36.6667C34.8986 27.572 33.2029 28.2743 31.9526 29.5246C30.7024 30.7748 30 32.4705 30 34.2386C30 36.0067 30.7024 37.7024 31.9526 38.9527C33.2029 40.2029 34.8986 40.9053 36.6667 40.9053H43.3333C45.1014 40.9053 46.7971 41.6077 48.0474 42.8579C49.2976 44.1082 50 45.8038 50 47.572C50 49.3401 49.2976 51.0358 48.0474 52.286C46.7971 53.5362 45.1014 54.2386 43.3333 54.2386H36.6667C35.4583 54.2793 34.2616 53.9906 33.2047 53.4035C32.1478 52.8163 31.2705 51.9528 30.6667 50.9053" stroke="black" stroke-width="5" stroke-linecap="round" stroke-linejoin="round"/>
<path d="M40 54.2386V60.9053M40 20.9053V27.572V20.9053Z" stroke="black" stroke-width="5" stroke-linecap="round" stroke-linejoin="round"/>
</svg>
