<svg width="23" height="23" viewBox="0 0 23 23" fill="none" xmlns="http://www.w3.org/2000/svg">
<g clip-path="url(#clip0)">
<path d="M17.5244 2.01538C17.2546 2.01538 16.9935 2.12086 16.7981 2.31626C15.1451 3.96934 13.696 4.28232 11.5985 4.28232C10.9622 4.28232 10.2636 4.25119 9.52353 4.21834C8.9408 4.1924 8.33905 4.16646 7.68888 4.14917C7.57476 4.14571 7.46236 4.14571 7.3517 4.14571C2.04834 4.14571 0.350301 7.35332 0.281134 7.48992C0.191796 7.66542 0.154593 7.86284 0.173926 8.05882L1.33593 19.6356C1.35486 19.8241 1.42541 20.0037 1.53981 20.1547C1.65421 20.3057 1.80803 20.4223 1.98436 20.4915C2.10343 20.538 2.23006 20.562 2.35786 20.5624C2.60513 20.5624 2.84895 20.4725 3.04088 20.3013C3.05818 20.2858 5.19024 18.4632 8.59497 18.4632C9.03072 18.4632 9.47511 18.4926 9.91605 18.5514C11.519 18.7641 12.6879 18.8592 13.7116 18.8592C16.9849 18.8592 19.4057 17.8044 21.8075 15.3352C21.9355 15.203 22.0258 15.0391 22.069 14.8603C22.1121 14.6815 22.1067 14.4944 22.0531 14.3184L18.5066 2.74163C18.4545 2.57227 18.3597 2.41918 18.2313 2.29712C18.1029 2.17506 17.9452 2.08816 17.7734 2.04478C17.6904 2.02576 17.6074 2.01538 17.5244 2.01538Z" fill="white"/>
<path d="M10.4607 19.3642C15.062 19.7222 18.1658 20.5626 22.4732 15.6119L20.8547 9.09644C16.9952 13.4332 14.5709 13.4418 9.33671 12.9248C4.90832 12.4873 1.83559 15.337 0.715088 16.3382L1.44653 22.7655C3.26561 21.2525 6.00115 19.0167 10.4607 19.3642Z" fill="#E74600"/>
<path d="M9.50855 13.5679C13.9784 13.9275 16.9941 14.7662 21.1804 9.81558L19.8075 4.76123C16.0586 9.09798 13.7018 9.10663 8.6163 8.58788C4.31413 8.14867 1.32959 11.0001 0.241943 11.9995L0.752048 16.9657C2.51753 15.4561 5.17526 13.2203 9.50855 13.5679Z" fill="#00538B"/>
</g>
<defs>
<clipPath id="clip0">
<rect width="22.1333" height="22.1333" fill="white" transform="translate(0.0666504 0.222168)"/>
</clipPath>
</defs>
</svg>
