<svg width="23" height="23" viewBox="0 0 23 23" fill="none" xmlns="http://www.w3.org/2000/svg">
<g clip-path="url(#clip0)">
<path d="M17.5249 2.4375C17.2552 2.4375 16.9923 2.54298 16.7987 2.73837C15.1456 4.39146 13.6965 4.70444 11.5991 4.70444C10.9627 4.70444 10.2641 4.67331 9.52407 4.64046C8.94306 4.61452 8.34132 4.58685 7.68942 4.57129C7.57529 4.56783 7.46463 4.5661 7.35396 4.5661C2.04888 4.5661 0.352565 7.77544 0.283398 7.91204C0.193911 8.08749 0.1567 8.28495 0.17619 8.48094L1.33819 20.0577C1.35758 20.2459 1.42832 20.425 1.54268 20.5757C1.65705 20.7263 1.81062 20.8427 1.98663 20.9119C2.1057 20.9584 2.23232 20.9824 2.36013 20.9828C2.6074 20.9828 2.85121 20.8929 3.04315 20.7234C3.06044 20.7079 5.1925 18.8836 8.59896 18.8836C9.03471 18.8836 9.47911 18.913 9.91831 18.9718C11.5213 19.1845 12.6902 19.2796 13.7138 19.2796C16.9871 19.2796 19.408 18.2248 21.8098 15.7555C21.9383 15.6234 22.0289 15.4592 22.0722 15.28C22.1154 15.1008 22.1095 14.9132 22.0553 14.7371L18.5088 3.16202C18.4567 2.99243 18.3616 2.83918 18.2329 2.71709C18.1041 2.59501 17.946 2.50824 17.7739 2.46517C17.6909 2.44787 17.6079 2.4375 17.5249 2.4375Z" fill="#003192"/>
<path d="M12.072 14.5953C12.1153 14.7474 12.1758 14.8771 12.2623 14.9636C12.5303 15.2316 12.8917 15.1503 13.215 15.1365C13.5038 15.1227 13.7839 15.2524 14.0744 15.28C14.894 15.3561 15.6964 15.5757 16.4728 15.88C17.3304 16.2155 18.2382 16.4334 19.1478 16.4213C20.2181 16.4074 21.3974 16.385 22.1773 15.5256C22.3606 15.3233 22.5888 15.0362 22.556 14.7595C22.5006 14.2909 22.2309 13.8051 22.058 13.3555C21.9646 13.1117 21.9145 12.8505 21.783 12.6137C21.7571 12.567 21.6516 12.337 21.6136 12.3214C21.5513 12.2972 21.4251 12.4528 21.3732 12.4892C21.1363 12.6534 20.8839 12.7935 20.6314 12.9335C20.3409 13.0944 20.0435 13.288 19.7046 13.3278C19.3657 13.3676 19.0354 13.3883 18.6896 13.3658C17.9322 13.3157 17.1835 13.1428 16.4641 12.9111C15.2727 12.5255 13.9344 11.9358 12.679 12.2056C12.5597 12.2315 12.4438 12.2678 12.3314 12.3197C12.1602 12.3975 12.0029 12.4511 11.9406 12.6534C11.8767 12.8661 11.9337 13.1618 11.9475 13.3762C11.9683 13.6857 11.9631 14.2097 12.072 14.5953Z" fill="white"/>
<path d="M12.1916 14.163C12.266 14.163 12.406 14.0558 12.4804 14.0402C13.1721 13.8933 13.862 13.8863 14.5537 14.0385C15.2661 14.1941 15.9543 14.4656 16.6511 14.6921C17.3307 14.9117 18.0276 15.0743 18.7313 15.1365C19.3262 15.1884 19.8933 15.1486 20.4761 15.0138C20.9308 14.9065 21.2646 14.68 21.6104 14.3792C21.7505 14.2581 21.8922 14.1319 22.0358 14.0229C22.0686 13.997 22.1222 13.9555 22.1482 13.9261C22.2191 13.8431 22.1879 13.8414 22.1534 13.7463C22.0997 13.5958 22.0634 13.4298 21.9977 13.2829C21.9459 13.167 21.849 13.0754 21.7885 12.963C21.7211 12.8419 21.683 12.7485 21.5464 12.8385C21.4565 12.8973 21.3994 12.9993 21.3147 13.0633C20.936 13.3572 20.3879 13.6823 19.8968 13.8068C19.7446 13.8448 19.5821 13.8518 19.4265 13.8639C18.4426 13.9399 17.348 13.7152 16.4039 13.4108C15.2125 13.0252 13.8758 12.4356 12.6205 12.7036C12.5011 12.7295 12.3853 12.7676 12.2729 12.8177C12.0377 12.9267 11.7853 13.0788 11.8648 13.416C11.9063 13.5855 11.9772 14.1284 12.1916 14.163Z" fill="#F52933"/>
<path d="M1.56957 6.13605C1.57303 6.13432 1.57995 6.13259 1.5834 6.13087C2.00013 5.97524 2.40995 5.93201 2.85088 5.91818C3.27972 5.90434 3.71201 5.94066 4.13393 6.01501C5.46711 6.25191 6.55822 6.79487 7.69255 7.62832C8.61074 8.3027 9.46667 8.73845 9.48224 10.1235C9.48915 10.599 9.35601 11.1316 8.92372 11.2855C8.46722 11.4463 7.85509 11.5898 7.40724 11.3581C6.95593 11.1247 6.66543 10.5748 6.23659 10.2947C5.56395 9.85549 4.76853 9.38862 3.99905 9.24164C3.47511 9.14134 2.94253 9.05834 2.41168 9.00474C1.98284 8.96151 1.5592 9.0912 1.17359 9.26412C1.01451 9.33674 0.846779 9.40245 0.6998 9.49409C0.568384 9.57537 0.407571 9.64107 0.289988 9.73791C0.179321 9.82782 0.0894045 9.94714 -0.0143455 10.0492C0.00986281 9.87624 -0.0852414 9.68603 -0.104262 9.51657C-0.1302 9.28659 -0.157866 9.04797 -0.163054 8.81799C-0.169971 8.42547 -0.330783 8.03987 -0.287554 7.65945C-0.273721 7.54187 -0.280637 7.40872 -0.252971 7.29459C-0.218387 7.15626 -0.0644914 7.08709 0.0375295 7.00582C0.231196 6.85366 0.435238 6.72051 0.632363 6.57526C0.787988 6.46114 0.943613 6.41272 1.11999 6.33837C1.27388 6.27784 1.41395 6.19484 1.56957 6.13605Z" fill="white"/>
<path d="M8.33449 10.146C8.23074 9.99732 8.13737 9.8417 8.02324 9.70336C7.03935 8.50505 5.77014 7.47446 4.32283 7.19953C3.79716 7.10096 3.26458 7.01624 2.73372 6.96263C1.85012 6.87444 0.703682 7.29463 0.044869 7.88601C-0.10211 8.01915 -0.0433185 8.29063 -0.0433185 8.48603C-0.0433185 8.62436 -0.058881 8.77134 -0.0433185 8.90795C-0.0346726 8.98057 -0.0346726 9.17078 0.0396815 9.19326C0.0587024 9.20017 0.743452 8.74367 0.847202 8.69526C1.3331 8.47047 1.91583 8.21282 2.46397 8.26815C2.99483 8.32176 3.52741 8.40476 4.05308 8.50505C4.63926 8.61572 5.22026 8.8163 5.74247 9.14657C6.30099 9.49759 6.71426 10.0613 7.13272 10.6008C7.21054 10.7011 7.27624 10.9051 7.37654 10.9622C7.54426 11.059 7.76906 10.9536 7.92814 10.8775C8.01114 10.8377 8.09241 10.791 8.17714 10.7547C8.22729 10.7339 8.53162 10.6665 8.54718 10.6267C8.59387 10.5109 8.43997 10.2896 8.37599 10.2031C8.36043 10.1858 8.3466 10.1651 8.33449 10.146Z" fill="#F52933"/>
<path d="M11.6968 9.15009C11.7435 9.12934 11.792 9.11032 11.8317 9.0913C12.1412 8.95124 12.4335 8.76449 12.7188 8.55699C14.052 7.5852 15.2624 6.32463 15.897 4.63005C16.0353 4.26174 16.1892 3.90207 16.3206 3.53203C16.4244 3.2398 16.4227 2.9787 16.6284 2.7712C16.8411 2.55332 17.0434 2.31815 17.2855 2.14178C17.5414 1.95503 17.8285 1.78038 18.1051 1.64551C18.1466 1.81497 18.266 1.94292 18.3178 2.12103C18.3853 2.34928 18.4285 2.57926 18.4821 2.80751C18.5651 3.1568 18.6239 3.49572 18.6896 3.84501C18.8158 4.51247 18.3887 5.37359 18.1778 5.98226C17.7697 7.16328 17.1766 8.28897 16.3466 9.13799C15.961 9.53224 15.5373 9.8919 15.105 10.2308C14.7972 10.4729 14.5067 10.6821 14.1696 10.8654C13.988 10.964 13.7943 11.0453 13.6162 11.1507C13.2168 11.3928 12.5044 11.6176 12.2225 11.0349C12.079 10.7375 11.9268 10.4158 11.7608 10.1374C11.6363 9.92822 11.3735 9.65155 11.4548 9.36624C11.4824 9.26076 11.5896 9.19851 11.6968 9.15009Z" fill="white"/>
<path d="M12.4166 10.7321C12.4996 10.7114 12.5808 10.6768 12.6552 10.6509C12.9768 10.5402 13.2812 10.3206 13.5647 10.1131C14.8979 9.14304 16.1066 7.88248 16.743 6.18617C17.0283 5.42187 17.343 4.67142 17.5695 3.88119C17.6317 3.66331 18.109 1.74912 17.6732 1.8304C17.4208 1.87881 17.1666 2.12781 17.0594 2.39065C16.9954 2.54627 16.9366 2.75204 16.902 2.92496C16.8761 3.0581 16.8467 3.1826 16.8087 3.31402C16.7343 3.56821 16.6427 3.81894 16.5527 4.06794C16.4196 4.43798 16.2674 4.79765 16.1291 5.16596C15.4928 6.86054 14.2841 8.12283 12.9492 9.0929C12.6829 9.28656 12.4045 9.46812 12.1122 9.60473C11.8546 9.72577 11.6471 9.8105 11.7993 10.1978C11.8511 10.331 11.929 10.4399 11.9895 10.5661C12.0898 10.7719 12.2523 10.7736 12.4166 10.7321Z" fill="#F52933"/>
<path d="M2.84543 17.5489C3.6737 15.9823 4.81323 14.5592 6.20693 13.4577C7.01618 12.8179 7.85137 12.102 8.81279 11.8115C8.9442 11.7718 9.28139 11.6646 9.41108 11.7493C9.54423 11.834 9.65835 12.4254 9.7085 12.6156C9.80533 12.9839 9.86239 13.3522 9.95404 13.7205C9.99727 13.8952 10.1512 14.2099 10.1166 14.3811C9.86412 14.4226 9.69812 14.516 9.46814 14.6387C9.17591 14.7944 8.86985 14.8825 8.59491 15.0727C8.09173 15.4238 7.64387 15.8197 7.21504 16.2728C6.80004 16.712 6.46112 17.2238 6.16025 17.7495C5.95793 18.1022 5.82306 18.4688 5.69164 18.851C5.61556 19.0723 5.56023 19.2988 5.53602 19.5288C5.51008 19.7622 5.52737 20.013 5.47204 20.243C5.36137 20.2758 5.23687 20.281 5.13139 20.319C5.0311 20.3536 4.92908 20.4211 4.83225 20.4626C4.55039 20.5853 4.2841 20.7461 3.99879 20.8724C3.77227 20.9727 3.5665 21.1075 3.33998 21.2061C3.08233 21.3202 2.81258 21.3859 2.54283 21.4655C2.34052 21.526 2.14858 21.6159 1.948 21.6747C1.86845 21.6972 1.77854 21.737 1.7111 21.6678C1.65577 21.6107 1.67479 21.4724 1.67479 21.3998C1.67652 20.4677 1.87364 19.5893 2.2506 18.7386C2.43389 18.334 2.63793 17.9414 2.84543 17.5489Z" fill="white"/>
<path d="M9.55807 12.8591C9.41282 12.8954 9.26757 12.9421 9.12924 12.9784C7.8341 13.3173 6.64962 14.2355 5.68474 15.2592C5.32162 15.6431 5.0121 16.0909 4.7337 16.5595C4.59364 16.793 4.46222 17.035 4.33599 17.2788C3.97805 17.9826 3.70139 18.8714 3.60801 19.6582C3.58726 19.8242 3.58035 19.9936 3.58035 20.1631C3.58035 20.3049 3.56132 20.464 3.58553 20.604C3.70485 20.6455 3.86739 20.5089 3.96595 20.4536C4.10601 20.3758 4.25299 20.3153 4.39824 20.2513C4.57289 20.1735 4.76137 20.0887 4.88068 19.9348C5.00864 19.7706 5.0363 19.5562 5.05187 19.3573C5.10893 18.6328 5.3856 17.9498 5.73662 17.3186C6.05478 16.7463 6.41618 16.1843 6.86749 15.707C7.2946 15.254 7.74418 14.858 8.24737 14.507C8.5223 14.3168 8.82837 14.2269 9.12059 14.073C9.31599 13.9692 9.48718 13.881 9.70159 13.862C9.85895 13.8465 10.0163 13.8326 10.1737 13.805C10.2843 13.7859 10.4555 13.779 10.5523 13.7064C10.7028 13.5905 10.5368 13.198 10.4624 13.058C10.3639 12.8712 10.2117 12.783 10.0232 12.7865C9.86932 12.7882 9.71197 12.8193 9.55807 12.8591Z" fill="#F52933"/>
<path d="M19.6373 10.5507C20.0178 10.2187 20.374 9.85553 20.6766 9.46474C20.7578 9.36099 20.7302 9.32641 20.687 9.21228C20.6403 9.08433 20.6195 8.95291 20.5936 8.81976C20.5365 8.51543 20.3947 8.22666 20.3117 7.92924C20.2374 7.66122 20.1388 7.38974 20.0437 7.12864C19.9953 6.99376 19.9348 6.86753 19.8812 6.73266C19.8397 6.62891 19.8293 6.53035 19.7307 6.54764C19.6443 6.5632 19.5526 6.69635 19.4956 6.75687C19.4108 6.84678 19.3244 6.94535 19.2362 7.03353C19.0771 7.19262 18.9094 7.3396 18.7416 7.48831C18.5912 7.62145 18.4892 7.77708 18.3474 7.91714C18.132 8.12923 17.9033 8.32733 17.6626 8.51024C17.1854 8.8751 16.6701 9.17251 16.1358 9.40941C15.183 9.83133 14.1715 10.0665 13.1564 10.1633C12.6515 10.2117 12.1449 10.2256 11.64 10.2066C11.3391 10.1962 11.0226 10.1357 10.7218 10.1599C10.5367 10.1737 10.3517 10.1097 10.1667 10.0872C9.94364 10.0613 9.71712 10.063 9.49405 10.0406C8.2041 9.90914 6.89512 9.8002 5.60862 10.044C4.90485 10.1772 4.21837 10.3933 3.5561 10.6631C2.89728 10.9328 2.12953 11.2198 1.52605 11.6003C1.26841 11.7628 1.0367 11.9634 0.784241 12.1346C0.649366 12.2245 0.336387 12.3317 0.258575 12.477C0.203241 12.5807 0.241283 12.8989 0.251658 13.0061C0.270679 13.224 0.322554 13.4401 0.343304 13.658C0.365783 13.9018 0.341575 14.1525 0.369241 14.3963C0.402096 14.6765 0.492012 14.9514 0.490283 15.2332C0.490283 15.3768 0.4142 15.873 0.578471 15.9197C0.749658 15.9664 1.26149 15.4252 1.39118 15.3214C2.68805 14.2995 4.24949 13.6078 5.87318 13.2983C7.15968 13.0545 8.46866 13.1652 9.75862 13.2948C9.98168 13.3173 10.2065 13.3156 10.4313 13.3415C10.6146 13.364 10.7996 13.428 10.9863 13.4142C11.2872 13.39 11.6036 13.4505 11.9045 13.4608C12.4094 13.4799 12.9178 13.466 13.421 13.4176C14.4377 13.3225 15.4476 13.0873 16.4003 12.6637C17.5693 12.1432 18.6725 11.3893 19.6373 10.5507Z" fill="white"/>
<path d="M14.5473 17.6937C13.9905 16.0821 13.5565 14.3927 13.1242 12.7552C12.6884 11.0987 12.2752 9.43521 11.8723 7.76829C11.6077 6.67373 11.3656 5.57571 11.1858 4.46385C11.1633 4.32033 11.0855 4.17854 11.0872 4.03329C10.923 4.05923 10.776 4.06269 10.6065 4.09208C10.0515 4.18546 9.43415 4.17681 8.87563 4.10765C8.5834 4.07133 8.28079 4.07652 7.98511 4.01773C7.7949 3.97969 7.4629 4.00908 7.31419 3.90015C7.28306 4.05231 7.34704 4.18719 7.34877 4.33935C7.37644 5.42008 7.70498 6.55442 7.88827 7.61958C8.20471 9.45596 8.53498 11.2941 8.89638 13.1235C9.05892 13.9483 9.22838 14.7731 9.40648 15.5945C9.54136 16.2205 9.66413 16.8499 9.80073 17.4758C9.88373 17.858 10.029 18.2228 10.1535 18.5929C10.2123 18.771 10.2763 18.956 10.3178 19.1376C10.3523 19.288 10.3489 19.4557 10.4561 19.5802C10.5875 19.7359 10.7933 19.6477 10.9904 19.6667C11.58 19.7203 12.1853 19.7272 12.7853 19.7134C13.0568 19.7082 13.3213 19.6477 13.5893 19.6217C13.8193 19.5975 14.0579 19.6459 14.2896 19.6252C14.6372 19.5941 14.9692 19.6442 15.3202 19.5716C15.322 19.2309 14.8828 18.624 14.7617 18.2989C14.6908 18.0983 14.6182 17.896 14.5473 17.6937Z" fill="white"/>
<path d="M10.7741 6.80386C10.6288 6.13294 10.4853 5.4603 10.3487 4.78592C10.2951 4.52482 10.3124 4.21357 9.98214 4.20665C9.66052 4.19973 9.33198 4.1444 9.01381 4.08388C8.70256 4.02509 8.34116 3.85217 8.02645 3.90232C8.01089 3.90923 8.54866 6.63094 8.58498 6.8004C8.83398 7.97796 9.13485 9.14515 9.42708 10.3123C9.72104 11.4813 10.0634 12.6363 10.3141 13.8174C10.5666 15.0036 10.724 16.2071 11.0179 17.3829C11.1511 17.9155 11.3188 18.4308 11.4658 18.9582C11.5159 19.1397 11.6421 19.3957 11.6387 19.5755C12.2802 19.6844 13.0082 19.5513 13.6376 19.4925C13.8849 19.47 14.127 19.5651 14.3431 19.4372C14.165 19.5409 13.4024 16.9281 13.3333 16.6722C12.9719 15.3442 12.543 14.037 12.192 12.7055C11.675 10.7446 11.2064 8.7803 10.7741 6.80386Z" fill="#F52933"/>
<path d="M19.608 9.74144C19.736 9.61349 19.8622 9.48207 19.978 9.34546C20.1147 9.18811 20.3879 9.00655 20.3861 8.77311C20.3861 8.67455 20.3325 8.56215 20.3187 8.46013C20.2979 8.30797 20.2582 8.15926 20.2167 8.01055C20.1562 7.79959 20.1734 7.5748 20.0956 7.36903C20.0541 7.26009 19.9659 7.06988 19.8224 7.14424C19.7412 7.18574 19.6858 7.32753 19.6357 7.40015C19.5752 7.49007 19.5094 7.57653 19.4437 7.66126C19.3417 7.79267 19.2189 7.90853 19.0875 8.01747C18.8403 8.22151 18.6155 8.45322 18.3872 8.68146C18.1711 8.894 17.9419 9.09267 17.7007 9.2763C17.2235 9.63942 16.7082 9.93684 16.1739 10.1737C15.2211 10.5957 14.2113 10.8308 13.1945 10.9259C12.6896 10.9743 12.183 10.9864 11.6763 10.9692C11.3754 10.957 11.059 10.8983 10.7581 10.9225C10.5731 10.9363 10.3864 10.8723 10.2031 10.8498C9.97828 10.8239 9.75348 10.8256 9.53042 10.8014C8.24046 10.6717 6.93148 10.5611 5.64671 10.8049C4.45013 11.0314 3.27948 11.5017 2.18665 12.0983C1.88751 12.2608 1.58144 12.4355 1.29267 12.6136C1.17336 12.6879 1.05059 12.764 0.936464 12.8436C0.761818 12.9646 0.435005 13.0805 0.310505 13.2586C0.236151 13.3658 0.274193 13.6597 0.289755 13.7946C0.317422 14.0384 0.360651 14.2961 0.400422 14.5381C0.435005 14.7595 0.386589 14.9774 0.436734 15.1935C0.542214 15.235 0.677089 15.0673 0.765276 15.0258C0.955484 14.9376 1.09555 14.8096 1.26328 14.6938C1.43446 14.5762 1.61776 14.4655 1.7924 14.3497C2.17455 14.0972 2.56707 13.8603 2.97861 13.658C3.60457 13.3502 4.24955 13.0908 4.90836 12.8954C5.2248 12.8021 5.54296 12.7243 5.86459 12.662C7.15109 12.4182 8.45834 12.5289 9.7483 12.6585C9.97136 12.681 10.1979 12.6793 10.4209 12.7052C10.6042 12.726 10.7893 12.7917 10.976 12.7761C11.2769 12.7519 11.5933 12.8124 11.8942 12.8228C12.3991 12.8418 12.9075 12.828 13.4107 12.7796C14.4274 12.6828 15.4373 12.4476 16.39 12.0257C16.9243 11.7888 17.4396 11.4914 17.9169 11.1282C18.4996 10.689 19.0858 10.2585 19.608 9.74144Z" fill="#F52933"/>
</g>
<defs>
<clipPath id="clip0">
<rect width="22.1333" height="22.1333" fill="white" transform="translate(0.0666504 0.644531)"/>
</clipPath>
</defs>
</svg>
