<svg width="81" height="80" viewBox="0 0 81 80" fill="none" xmlns="http://www.w3.org/2000/svg">
<g clip-path="url(#clip0)">
<path d="M13.5 43.3333C19.5179 44.0397 25.1203 46.7251 29.4056 50.9575C33.6908 55.1898 36.4098 60.723 37.125 66.6667C40.1082 64.968 42.6036 62.5461 44.3753 59.6298C46.1469 56.7135 47.1363 53.3991 47.25 50C52.917 48.031 57.8656 44.4466 61.47 39.7C65.0745 34.9534 67.1729 29.2578 67.5 23.3333C67.5 20.6812 66.4333 18.1376 64.5345 16.2623C62.6356 14.3869 60.0603 13.3333 57.375 13.3333C51.3765 13.6564 45.6096 15.7289 40.8037 19.2888C35.9978 22.8488 32.3686 27.7363 30.375 33.3333C26.9334 33.4456 23.5776 34.4228 20.6248 36.1726C17.6721 37.9224 15.2199 40.3869 13.5 43.3333" stroke="#00C2EB" stroke-width="5" stroke-linecap="round" stroke-linejoin="round"/>
<path d="M23.625 46.6667C20.1124 48.6253 17.2721 51.5753 15.4682 55.1386C13.6643 58.7019 12.9789 62.7162 13.5 66.6667C17.4999 67.1814 21.5643 66.5045 25.1722 64.7228C28.7801 62.9412 31.767 60.1359 33.75 56.6667" stroke="#00C2EB" stroke-width="5" stroke-linecap="round" stroke-linejoin="round"/>
<path d="M50.625 33.3334C52.489 33.3334 54 31.841 54 30C54 28.1591 52.489 26.6667 50.625 26.6667C48.761 26.6667 47.25 28.1591 47.25 30C47.25 31.841 48.761 33.3334 50.625 33.3334Z" stroke="#00C2EB" stroke-width="3" stroke-linecap="round" stroke-linejoin="round"/>
</g>
<defs>
<clipPath id="clip0">
<rect width="81" height="80" fill="white"/>
</clipPath>
</defs>
</svg>
