<svg width="80" height="80" viewBox="0 0 80 80" fill="none" xmlns="http://www.w3.org/2000/svg">
<path d="M30 36.6667C37.3638 36.6667 43.3333 30.6971 43.3333 23.3333C43.3333 15.9695 37.3638 10 30 10C22.6362 10 16.6666 15.9695 16.6666 23.3333C16.6666 30.6971 22.6362 36.6667 30 36.6667Z" stroke="#00C2EB" stroke-width="5" stroke-linecap="round" stroke-linejoin="round"/>
<path d="M10 70V63.3333C10 59.7971 11.4048 56.4057 13.9052 53.9052C16.4057 51.4048 19.7971 50 23.3333 50H36.6667C40.2029 50 43.5943 51.4048 46.0948 53.9052C48.5952 56.4057 50 59.7971 50 63.3333V70" stroke="#00C2EB" stroke-width="5" stroke-linecap="round" stroke-linejoin="round"/>
<path d="M53.3334 10.4333C56.2014 11.1677 58.7435 12.8357 60.5588 15.1744C62.3742 17.5131 63.3595 20.3894 63.3595 23.35C63.3595 26.3106 62.3742 29.1869 60.5588 31.5256C58.7435 33.8643 56.2014 35.5323 53.3334 36.2667" stroke="#00C2EB" stroke-width="5" stroke-linecap="round" stroke-linejoin="round"/>
<path d="M70 70V63.3333C69.9831 60.3905 68.993 57.536 67.1842 55.2147C65.3754 52.8933 62.8494 51.2357 60 50.5" stroke="#00C2EB" stroke-width="5" stroke-linecap="round" stroke-linejoin="round"/>
</svg>
