<svg width="80" height="80" viewBox="0 0 80 80" fill="none" xmlns="http://www.w3.org/2000/svg">
<path d="M40 70C56.5685 70 70 56.5685 70 40C70 23.4315 56.5685 10 40 10C23.4315 10 10 23.4315 10 40C10 56.5685 23.4315 70 40 70Z" stroke="#00C2EB" stroke-width="5" stroke-linecap="round" stroke-linejoin="round"/>
<path d="M30 30H30.0333" stroke="#00C2EB" stroke-width="5" stroke-linecap="round" stroke-linejoin="round"/>
<path d="M50 30H50.0333" stroke="#00C2EB" stroke-width="5" stroke-linecap="round" stroke-linejoin="round"/>
<path d="M53.3333 43.3334H26.6666M26.6666 43.3334C26.6666 46.8696 28.0714 50.261 30.5719 52.7615C33.0724 55.2619 36.4637 56.6667 40 56.6667C43.5362 56.6667 46.9276 55.2619 49.4281 52.7615C51.9285 50.261 53.3333 46.8696 53.3333 43.3334H26.6666Z" stroke="#00C2EB" stroke-width="3" stroke-linecap="round" stroke-linejoin="round"/>
</svg>
