<svg width="80" height="80" viewBox="0 0 80 80" fill="none" xmlns="http://www.w3.org/2000/svg">
<path d="M40 70C56.5685 70 70 56.5685 70 40C70 23.4315 56.5685 10 40 10C23.4315 10 10 23.4315 10 40C10 56.5685 23.4315 70 40 70Z" stroke="#00C2EB" stroke-width="5" stroke-linecap="round" stroke-linejoin="round"/>
<path d="M49.3333 30C48.7295 28.9525 47.8522 28.089 46.7953 27.5018C45.7384 26.9146 44.5417 26.6259 43.3333 26.6666H36.6667C34.8986 26.6666 33.2029 27.369 31.9526 28.6192C30.7024 29.8695 30 31.5652 30 33.3333C30 35.1014 30.7024 36.7971 31.9526 38.0473C33.2029 39.2976 34.8986 40 36.6667 40H43.3333C45.1014 40 46.7971 40.7023 48.0474 41.9526C49.2976 43.2028 50 44.8985 50 46.6666C50 48.4347 49.2976 50.1304 48.0474 51.3807C46.7971 52.6309 45.1014 53.3333 43.3333 53.3333H36.6667C35.4583 53.374 34.2616 53.0853 33.2047 52.4981C32.1478 51.911 31.2705 51.0474 30.6667 50" stroke="#00C2EB" stroke-width="5" stroke-linecap="round" stroke-linejoin="round"/>
<path d="M40 53.3333V60M40 20V26.6667V20Z" stroke="#00C2EB" stroke-width="5" stroke-linecap="round" stroke-linejoin="round"/>
</svg>
