<svg width="80" height="80" viewBox="0 0 80 80" fill="none" xmlns="http://www.w3.org/2000/svg">
<path d="M40 70C36.0603 70 32.1593 69.224 28.5195 67.7164C24.8797 66.2088 21.5726 63.999 18.7868 61.2132C16.001 58.4274 13.7913 55.1203 12.2836 51.4805C10.776 47.8407 10 43.9397 10 40C10 36.0603 10.776 32.1593 12.2836 28.5195C13.7913 24.8797 16.001 21.5726 18.7868 18.7868C21.5726 16.001 24.8797 13.7913 28.5195 12.2836C32.1593 10.776 36.0603 10 40 10C47.9565 10 55.5871 12.8095 61.2132 17.8105C66.8393 22.8115 70 29.5942 70 36.6667C70 40.2029 68.4196 43.5943 65.6066 46.0948C62.7936 48.5952 58.9782 50 55 50H46.6667C45.1795 49.976 43.7271 50.4501 42.5404 51.3467C41.3537 52.2433 40.5009 53.5109 40.1177 54.9481C39.7345 56.3852 39.8428 57.9091 40.4255 59.2776C41.0082 60.646 42.0317 61.7803 43.3333 62.5C43.9989 63.1141 44.4553 63.9213 44.6385 64.8082C44.8216 65.6951 44.7223 66.6171 44.3545 67.4446C43.9867 68.2722 43.3689 68.9637 42.5879 69.422C41.8068 69.8804 40.9018 70.0825 40 70" stroke="#00C2EB" stroke-width="5" stroke-linecap="round" stroke-linejoin="round"/>
<path d="M25 36.6667C25.9205 36.6667 26.6667 35.9205 26.6667 35C26.6667 34.0795 25.9205 33.3333 25 33.3333C24.0796 33.3333 23.3334 34.0795 23.3334 35C23.3334 35.9205 24.0796 36.6667 25 36.6667Z" fill="#00C2EB" stroke="#00C2EB" stroke-width="4" stroke-linecap="round" stroke-linejoin="round"/>
<path d="M40 26.6667C40.9205 26.6667 41.6667 25.9205 41.6667 25C41.6667 24.0795 40.9205 23.3333 40 23.3333C39.0796 23.3333 38.3334 24.0795 38.3334 25C38.3334 25.9205 39.0796 26.6667 40 26.6667Z" fill="#00C2EB" stroke="#00C2EB" stroke-width="4" stroke-linecap="round" stroke-linejoin="round"/>
<path d="M55 36.6667C55.9205 36.6667 56.6667 35.9205 56.6667 35C56.6667 34.0795 55.9205 33.3333 55 33.3333C54.0796 33.3333 53.3334 34.0795 53.3334 35C53.3334 35.9205 54.0796 36.6667 55 36.6667Z" fill="#00C2EB" stroke="#00C2EB" stroke-width="4" stroke-linecap="round" stroke-linejoin="round"/>
</svg>
