<svg width="32" height="34" viewBox="0 0 32 34" fill="none" xmlns="http://www.w3.org/2000/svg">
<g clip-path="url(#clip0)">
<path d="M31.9906 0.612305H0.009375C0.00419733 0.612305 0 0.616588 0 0.621871V33.2558C0 33.2611 0.00419733 33.2654 0.009375 33.2654H31.9906C31.9958 33.2654 32 33.2611 32 33.2558V0.621871C32 0.616588 31.9958 0.612305 31.9906 0.612305Z" fill="#37AEE2"/>
<path d="M12.4375 26.3777C11.75 26.3777 11.8125 26.1226 11.625 25.4848L9.625 18.7884L24.9375 9.60474" fill="#C8DAEA"/>
<path d="M12.4375 26.3777C12.875 26.3777 13.125 26.1226 13.4375 25.8675L16.25 23.1252L12.75 20.9568" fill="#A9C9DD"/>
<path d="M12.75 20.9568L21.1875 27.2706C22.0625 27.8446 22.8125 27.5257 23.0625 26.3777L26.5 9.92365C26.8125 8.52059 25.9375 7.88283 25 8.32926L4.93753 16.2374C3.62503 16.7476 3.62503 17.5767 4.68753 17.8956L9.87503 19.5538L21.75 11.8369C22.3125 11.518 22.8125 11.6456 22.4375 12.092" fill="#F6FBFE"/>
</g>
<defs>
<clipPath id="clip0">
<rect y="0.612305" width="32" height="32.6531" rx="3" fill="white"/>
</clipPath>
</defs>
</svg>
