<svg width="32" height="33" viewBox="0 0 32 33" fill="none" xmlns="http://www.w3.org/2000/svg">
<path d="M9.47078 13.9459L9.59894 13.5877L9.28784 13.3687L3.92255 9.59117L3.46016 9.26561L3.1937 9.7644C2.11081 11.7915 1.5 14.0779 1.5 16.5023C1.5 18.9249 2.1103 21.2096 3.19135 23.2354L3.45803 23.7351L3.9208 23.4085L9.2831 19.6237L9.59303 19.4049L9.46583 19.0475C9.18024 18.245 9.02168 17.3909 9.02168 16.5023C9.02168 15.6096 9.18227 14.7523 9.47078 13.9459Z" fill="white" stroke="#00BBE3"/>
<path d="M21.564 10.3509L21.9228 10.657L22.2493 10.3166L26.3608 6.02998L26.7164 5.65933L26.3363 5.31388C23.7481 2.9613 20.4187 1.5 16.6846 1.5C10.8912 1.5 5.92262 4.95986 3.54779 9.99436L3.37905 10.3521L3.6883 10.5986L8.4449 14.391L9.01429 14.8449L9.23342 14.1505C10.2692 10.868 13.2124 8.5282 16.6846 8.5282C18.5487 8.5282 20.2343 9.21682 21.564 10.3509Z" fill="white" stroke="#00BBE3"/>
<path d="M9.25657 18.8489L9.03738 18.1576L8.46923 18.6083L3.68927 22.3999L3.37804 22.6468L3.54818 23.0058C5.9348 28.0415 10.9271 31.5 16.7463 31.5C20.3339 31.5 23.7675 30.1758 26.3471 27.6873L26.7557 27.2931L26.3131 26.9376L21.776 23.2933L21.4929 23.0659L21.1891 23.2648C20.0024 24.0414 18.4888 24.4718 16.7463 24.4718C13.2547 24.4718 10.2971 22.1303 9.25657 18.8489Z" fill="white" stroke="#00BBE3"/>
<path d="M30.1781 13.89L30.0902 13.5H29.6904H17H16.5V14V19.3858V19.8858H17H23.6673C23.2492 21.2982 22.4021 22.3895 21.2516 23.1325L20.6654 23.511L21.2123 23.9444L25.563 27.3919L25.9034 27.6616L26.2181 27.3623C28.8256 24.8818 30.5 21.2037 30.5 16.5344C30.5 15.6642 30.3696 14.7391 30.1781 13.89Z" fill="white" stroke="#00BBE3"/>
</svg>
