<svg width="32" height="33" viewBox="0 0 32 33" fill="none" xmlns="http://www.w3.org/2000/svg">
<g clip-path="url(#clip0)">
<path fill-rule="evenodd" clip-rule="evenodd" d="M32 5.94237C30.8243 6.48879 29.5583 6.85818 28.2303 7.02323C29.5863 6.17425 30.627 4.82782 31.1173 3.22425C29.8475 4.01048 28.4445 4.58242 26.9455 4.88905C25.751 3.55461 24.0435 2.72119 22.154 2.72119C18.5308 2.72119 15.5913 5.79696 15.5913 9.59032C15.5913 10.1288 15.6475 10.6515 15.7603 11.1549C10.3043 10.8676 5.46776 8.13573 2.22751 3.97502C1.66226 4.99313 1.33901 6.17425 1.33901 7.43216C1.33901 9.8143 2.49801 11.9171 4.25976 13.1495C3.18551 13.1161 2.17101 12.8036 1.28451 12.2926V12.3771C1.28451 15.7064 3.54776 18.4834 6.55301 19.1125C6.00276 19.2737 5.42226 19.3544 4.82301 19.3544C4.40051 19.3544 3.98726 19.313 3.58701 19.2324C4.42276 21.9605 6.84576 23.9475 9.71951 24.0005C7.47301 25.8442 4.64076 26.9426 1.56601 26.9426C1.03626 26.9426 0.512262 26.9112 -0.000488281 26.8482C2.90526 28.7939 6.35751 29.9319 10.0633 29.9319C22.1405 29.9319 28.7425 19.4661 28.7425 10.388C28.7425 10.0893 28.7368 9.79058 28.7255 9.49772C30.009 8.52884 31.1228 7.32017 32 5.94237Z" fill="white"/>
</g>
<defs>
<clipPath id="clip0">
<rect width="32" height="32.6531" fill="white"/>
</clipPath>
</defs>
</svg>
