<svg width="32" height="34" viewBox="0 0 32 34" fill="none" xmlns="http://www.w3.org/2000/svg">
<g clip-path="url(#clip0)">
<path fill-rule="evenodd" clip-rule="evenodd" d="M17.0923 33.2654H1.76625C0.7905 33.2654 0 32.4582 0 31.4631V2.4146C0 1.41894 0.7905 0.612305 1.76625 0.612305H30.234C31.2092 0.612305 32 1.41894 32 2.4146V31.4631C32 32.4585 31.2092 33.2654 30.234 33.2654H22.0795V20.6202H26.239L26.8617 15.6922H22.0795V12.546C22.0795 11.1192 22.4678 10.147 24.4727 10.147L27.03 10.146V5.73833C26.5878 5.67838 25.0697 5.54419 23.3035 5.54419C19.6162 5.54419 17.092 7.84088 17.092 12.0582V15.6924H12.922V20.6205H17.0923V33.2654Z" fill="#4460A0"/>
</g>
<defs>
<clipPath id="clip0">
<rect width="32" height="32.6531" fill="white" transform="translate(0 0.612305)"/>
</clipPath>
</defs>
</svg>
