<svg width="32" height="33" viewBox="0 0 32 33" fill="none" xmlns="http://www.w3.org/2000/svg">
<g clip-path="url(#clip0)">
<path fill-rule="evenodd" clip-rule="evenodd" d="M17.0923 32.6531H1.76625C0.7905 32.6531 0 31.8459 0 30.8508V1.8023C0 0.806633 0.7905 0 1.76625 0H30.234C31.2092 0 32 0.806633 32 1.8023V30.8508C32 31.8462 31.2092 32.6531 30.234 32.6531H22.0795V20.0079H26.239L26.8617 15.0798H22.0795V11.9337C22.0795 10.5069 22.4678 9.53469 24.4727 9.53469L27.03 9.53367V5.12602C26.5878 5.06607 25.0697 4.93189 23.3035 4.93189C19.6162 4.93189 17.092 7.22857 17.092 11.4459V15.0801H12.922V20.0082H17.0923V32.6531Z" fill="white"/>
</g>
<defs>
<clipPath id="clip0">
<rect width="32" height="32.6531" fill="white"/>
</clipPath>
</defs>
</svg>
