<svg width="32" height="34" viewBox="0 0 32 34" fill="none" xmlns="http://www.w3.org/2000/svg">
<g clip-path="url(#clip0)">
<path d="M31.9906 0.612305H0.009375C0.00419733 0.612305 0 0.616588 0 0.621871V33.2558C0 33.2611 0.00419733 33.2654 0.009375 33.2654H31.9906C31.9958 33.2654 32 33.2611 32 33.2558V0.621871C32 0.616588 31.9958 0.612305 31.9906 0.612305Z" fill="#45D354"/>
<path d="M19.25 18.0229C19.0625 17.8954 18.875 17.8316 18.6875 18.0867L17.9375 19.1071C17.75 19.2347 17.625 19.2984 17.375 19.1709C16.4375 18.6607 15.125 18.0867 14 16.1734C13.9375 15.9183 14.0625 15.7908 14.1875 15.6632L14.75 14.7704C14.875 14.6428 14.8125 14.5153 14.75 14.3877L14 12.5382C13.8125 12.028 13.625 12.0918 13.4375 12.0918H12.9375C12.8125 12.0918 12.5625 12.1556 12.3125 12.4107C10.9375 13.8138 11.5 15.7908 12.5 17.0663C12.6875 17.3214 13.9375 19.6173 16.625 20.8291C18.625 21.7219 19.0625 21.5944 19.625 21.4668C20.3125 21.403 21 20.8291 21.3125 20.2551C21.375 20.0638 21.6875 19.2347 21.4375 19.1071L19.25 18.0229ZM16.5 25.102C13.9375 25.102 12 23.699 12 23.699L8.9375 24.528L9.6875 21.4668C9.6875 21.4668 8.4375 19.4898 8.4375 17.0025C8.4375 12.4107 12.125 8.58416 16.6875 8.58416C20.9375 8.58416 24.5625 11.9643 24.5625 16.6837C24.5625 21.2755 20.9375 25.0382 16.5 25.102ZM6.5625 26.9515L11.75 25.4847C13.2524 26.2695 14.9268 26.6483 16.6135 26.5849C18.3002 26.5216 19.9428 26.0181 21.3846 25.1226C22.8263 24.2271 24.019 22.9695 24.8489 21.4698C25.6788 19.9701 26.1182 18.2784 26.125 16.5561C26.125 11.0714 21.875 6.6709 16.5 6.6709C14.7748 6.6754 13.0809 7.14101 11.5869 8.02135C10.093 8.90169 8.85109 10.166 7.98497 11.6885C7.11884 13.211 6.65871 14.9384 6.65038 16.6988C6.64205 18.4591 7.08582 20.191 7.9375 21.7219" fill="white"/>
</g>
<defs>
<clipPath id="clip0">
<rect y="0.612305" width="32" height="32.6531" rx="3" fill="white"/>
</clipPath>
</defs>
</svg>
