<svg width="32" height="34" viewBox="0 0 32 34" fill="none" xmlns="http://www.w3.org/2000/svg">
<g clip-path="url(#clip0)">
<path fill-rule="evenodd" clip-rule="evenodd" d="M32 6.55467C30.8243 7.1011 29.5583 7.47049 28.2303 7.63554C29.5863 6.78656 30.627 5.44013 31.1173 3.83656C29.8475 4.62278 28.4445 5.19472 26.9455 5.50135C25.751 4.16691 24.0435 3.3335 22.154 3.3335C18.5308 3.3335 15.5913 6.40926 15.5913 10.2026C15.5913 10.7411 15.6475 11.2639 15.7603 11.7672C10.3043 11.4799 5.46776 8.74804 2.22751 4.58732C1.66226 5.60543 1.33901 6.78656 1.33901 8.04447C1.33901 10.4266 2.49801 12.5294 4.25976 13.7618C3.18551 13.7284 2.17101 13.4159 1.28451 12.9049V12.9894C1.28451 16.3187 3.54776 19.0957 6.55301 19.7248C6.00276 19.886 5.42226 19.9667 4.82301 19.9667C4.40051 19.9667 3.98726 19.9253 3.58701 19.8447C4.42276 22.5728 6.84576 24.5598 9.71951 24.6128C7.47301 26.4565 4.64076 27.5549 1.56601 27.5549C1.03626 27.5549 0.512262 27.5235 -0.000488281 27.4605C2.90526 29.4062 6.35751 30.5442 10.0633 30.5442C22.1405 30.5442 28.7425 20.0784 28.7425 11.0003C28.7425 10.7016 28.7368 10.4029 28.7255 10.11C30.009 9.14115 31.1228 7.93248 32 6.55467Z" fill="#00AAEC"/>
</g>
<defs>
<clipPath id="clip0">
<rect width="32" height="32.6531" fill="white" transform="translate(0 0.612305)"/>
</clipPath>
</defs>
</svg>
