<svg width="32" height="34" viewBox="0 0 32 34" fill="none" xmlns="http://www.w3.org/2000/svg">
<g clip-path="url(#clip0)">
<path d="M26.4 0.612305H5.6C2.50721 0.612305 0 3.17068 0 6.32659V27.5511C0 30.707 2.50721 33.2654 5.6 33.2654H26.4C29.4928 33.2654 32 30.707 32 27.5511V6.32659C32 3.17068 29.4928 0.612305 26.4 0.612305Z" fill="#4489C8"/>
<path d="M4.80994 10.6991H8.64994C8.73022 10.6989 8.80863 10.7238 8.87473 10.7703C8.94084 10.8167 8.99149 10.8827 9.01994 10.9593C9.44494 12.0766 11.2099 16.4491 12.8249 16.8062C14.0249 16.8062 13.5999 10.9899 12.0749 10.9899C11.6749 10.9899 12.7849 10.2654 12.8599 10.2348C14.2771 9.83841 15.7727 9.83841 17.1899 10.2348C17.9549 10.5613 18.0849 11.4746 18.1049 12.2501C18.1249 13.0256 17.2549 16.3317 18.3999 16.6889C19.8999 17.1583 21.8299 12.3572 22.2799 11.1787C22.3092 11.103 22.3602 11.0382 22.4262 10.9926C22.4923 10.9471 22.5702 10.923 22.6499 10.9236H26.9249C26.991 10.9233 27.0561 10.9398 27.1144 10.9716C27.1727 11.0033 27.2224 11.0492 27.259 11.1053C27.2957 11.1614 27.3181 11.2259 27.3244 11.293C27.3307 11.3601 27.3205 11.4277 27.2949 11.4899C26.4144 13.5398 25.3586 15.5065 24.1399 17.3674C24.0363 17.521 23.9877 17.7063 24.0023 17.8921C24.0169 18.078 24.0937 18.253 24.2199 18.3878C25.4999 19.7858 28.9999 23.745 26.9999 23.745H22.6849C22.5734 23.7453 22.4631 23.7213 22.3614 23.6747C22.2596 23.628 22.1688 23.5598 22.0949 23.4746C21.4249 22.7195 19.4749 20.6174 18.5949 20.7858C17.8649 20.9236 17.7949 22.1889 17.8299 23.0154C17.841 23.2286 17.7697 23.4378 17.6313 23.598C17.493 23.7583 17.2986 23.8568 17.0899 23.8725C16.3249 23.9185 15.2799 23.9389 15.1849 23.9338C12.1349 23.7348 10.3299 21.6583 8.60494 19.3419C6.79801 16.8862 5.38847 14.1508 4.42994 11.2399C4.41035 11.1783 4.40521 11.1129 4.41495 11.0489C4.4247 10.9849 4.44904 10.9241 4.48601 10.8715C4.52299 10.8189 4.57157 10.7758 4.62784 10.7459C4.68411 10.7159 4.74648 10.6999 4.80994 10.6991Z" fill="white"/>
</g>
<defs>
<clipPath id="clip0">
<rect width="32" height="32.6531" fill="white" transform="translate(0 0.612305)"/>
</clipPath>
</defs>
</svg>
