<svg width="32" height="33" viewBox="0 0 32 33" fill="none" xmlns="http://www.w3.org/2000/svg">
<g clip-path="url(#clip0)">
<path d="M26.4 0H5.6C2.50721 0 0 2.55837 0 5.71429V26.9388C0 30.0947 2.50721 32.6531 5.6 32.6531H26.4C29.4928 32.6531 32 30.0947 32 26.9388V5.71429C32 2.55837 29.4928 0 26.4 0Z" fill="white"/>
<path d="M4.80994 10.0868H8.64994C8.73022 10.0866 8.80863 10.1115 8.87473 10.1579C8.94084 10.2044 8.99149 10.2704 9.01994 10.347C9.44494 11.4643 11.2099 15.8368 12.8249 16.1939C14.0249 16.1939 13.5999 10.3776 12.0749 10.3776C11.6749 10.3776 12.7849 9.65309 12.8599 9.62248C14.2771 9.2261 15.7727 9.2261 17.1899 9.62248C17.9549 9.94901 18.0849 10.8623 18.1049 11.6378C18.1249 12.4133 17.2549 15.7194 18.3999 16.0766C19.8999 16.5459 21.8299 11.7449 22.2799 10.5664C22.3092 10.4907 22.3602 10.4259 22.4262 10.3803C22.4923 10.3348 22.5702 10.3107 22.6499 10.3113H26.9249C26.991 10.311 27.0561 10.3275 27.1144 10.3592C27.1727 10.391 27.2224 10.4369 27.259 10.493C27.2957 10.5491 27.3181 10.6136 27.3244 10.6807C27.3307 10.7478 27.3205 10.8154 27.2949 10.8776C26.4144 12.9274 25.3586 14.8942 24.1399 16.7551C24.0363 16.9087 23.9877 17.094 24.0023 17.2798C24.0169 17.4657 24.0937 17.6407 24.2199 17.7755C25.4999 19.1735 28.9999 23.1327 26.9999 23.1327H22.6849C22.5734 23.133 22.4631 23.109 22.3614 23.0624C22.2596 23.0157 22.1688 22.9475 22.0949 22.8623C21.4249 22.1072 19.4749 20.0051 18.5949 20.1735C17.8649 20.3113 17.7949 21.5766 17.8299 22.4031C17.841 22.6163 17.7697 22.8255 17.6313 22.9857C17.493 23.146 17.2986 23.2445 17.0899 23.2602C16.3249 23.3062 15.2799 23.3266 15.1849 23.3215C12.1349 23.1225 10.3299 21.0459 8.60494 18.7296C6.79801 16.2739 5.38847 13.5385 4.42994 10.6276C4.41035 10.566 4.40521 10.5006 4.41495 10.4366C4.4247 10.3726 4.44904 10.3118 4.48601 10.2592C4.52299 10.2066 4.57157 10.1635 4.62784 10.1336C4.68411 10.1036 4.74648 10.0876 4.80994 10.0868Z" fill="#00BBE3"/>
</g>
<defs>
<clipPath id="clip0">
<rect width="32" height="32.6531" fill="white"/>
</clipPath>
</defs>
</svg>
