<svg width="32" height="33" viewBox="0 0 32 33" fill="none" xmlns="http://www.w3.org/2000/svg">
<g clip-path="url(#clip0)">
<path d="M31.9906 0H0.009375C0.00419733 0 0 0.00428299 0 0.00956633V32.6435C0 32.6488 0.00419733 32.6531 0.009375 32.6531H31.9906C31.9958 32.6531 32 32.6488 32 32.6435V0.00956633C32 0.00428299 31.9958 0 31.9906 0Z" fill="white"/>
<g clip-path="url(#clip1)">
<path d="M24.3764 8.77433L6.65732 15.6426C5.94428 15.9624 5.7031 16.6029 6.48494 16.9505L11.0307 18.4026L22.0216 11.5749C22.6217 11.1462 23.2361 11.2605 22.7074 11.732L13.2677 20.3232L12.9712 23.959C13.2458 24.5204 13.7487 24.523 14.0695 24.244L16.6811 21.7601L21.154 25.1267C22.1928 25.7449 22.7581 25.346 22.9816 24.2129L25.9154 10.2493C26.22 8.85449 25.7006 8.23996 24.3764 8.77433Z" fill="#00BBE3"/>
</g>
</g>
<defs>
<clipPath id="clip0">
<rect width="32" height="32.6531" rx="3" fill="white"/>
</clipPath>
<clipPath id="clip1">
<rect width="20" height="20" fill="white" transform="translate(6 7)"/>
</clipPath>
</defs>
</svg>
