<svg width="32" height="33" viewBox="0 0 32 33" fill="none" xmlns="http://www.w3.org/2000/svg">
<g clip-path="url(#clip0)">
<path d="M31.9906 0H0.009375C0.00419733 0 0 0.00428299 0 0.00956633V32.6435C0 32.6488 0.00419733 32.6531 0.009375 32.6531H31.9906C31.9958 32.6531 32 32.6488 32 32.6435V0.00956633C32 0.00428299 31.9958 0 31.9906 0Z" fill="white"/>
<path d="M19.25 17.4106C19.0625 17.2831 18.875 17.2193 18.6875 17.4744L17.9375 18.4948C17.75 18.6224 17.625 18.6861 17.375 18.5586C16.4375 18.0484 15.125 17.4744 14 15.5611C13.9375 15.306 14.0625 15.1785 14.1875 15.0509L14.75 14.1581C14.875 14.0305 14.8125 13.903 14.75 13.7754L14 11.9259C13.8125 11.4157 13.625 11.4795 13.4375 11.4795H12.9375C12.8125 11.4795 12.5625 11.5433 12.3125 11.7984C10.9375 13.2015 11.5 15.1785 12.5 16.454C12.6875 16.7091 13.9375 19.005 16.625 20.2168C18.625 21.1096 19.0625 20.9821 19.625 20.8545C20.3125 20.7907 21 20.2168 21.3125 19.6428C21.375 19.4515 21.6875 18.6224 21.4375 18.4948L19.25 17.4106ZM16.5 24.4897C13.9375 24.4897 12 23.0867 12 23.0867L8.9375 23.9157L9.6875 20.8545C9.6875 20.8545 8.4375 18.8775 8.4375 16.3902C8.4375 11.7984 12.125 7.97186 16.6875 7.97186C20.9375 7.97186 24.5625 11.352 24.5625 16.0713C24.5625 20.6632 20.9375 24.4259 16.5 24.4897ZM6.5625 26.3392L11.75 24.8724C13.2524 25.6572 14.9268 26.036 16.6135 25.9726C18.3002 25.9093 19.9428 25.4058 21.3846 24.5103C22.8263 23.6148 24.019 22.3572 24.8489 20.8575C25.6788 19.3578 26.1182 17.6661 26.125 15.9438C26.125 10.4591 21.875 6.05859 16.5 6.05859C14.7748 6.0631 13.0809 6.5287 11.5869 7.40905C10.093 8.28939 8.85109 9.55374 7.98497 11.0762C7.11884 12.5987 6.65871 14.3261 6.65038 16.0864C6.64205 17.8468 7.08582 19.5787 7.9375 21.1096" fill="#00BBE3"/>
</g>
<defs>
<clipPath id="clip0">
<rect width="32" height="32.6531" rx="3" fill="white"/>
</clipPath>
</defs>
</svg>
