<svg width="32" height="34" viewBox="0 0 32 34" fill="none" xmlns="http://www.w3.org/2000/svg">
<g clip-path="url(#clip0)">
<path fill-rule="evenodd" clip-rule="evenodd" d="M6.8963 16.939C6.8963 15.8785 7.0688 14.8617 7.37705 13.9081L1.98455 9.7063C0.933553 11.8836 0.341553 14.3372 0.341553 16.939C0.341553 19.5387 0.933053 21.9905 1.9823 24.1665L7.3718 19.9566C7.06655 19.0073 6.8963 17.9943 6.8963 16.939Z" fill="#FBBC05"/>
<path fill-rule="evenodd" clip-rule="evenodd" d="M16.3642 7.29139C18.622 7.29139 20.6612 8.10771 22.2635 9.44343L26.9245 4.69394C24.0842 2.17072 20.4427 0.612305 16.3642 0.612305C10.0322 0.612305 4.59025 4.3072 1.9845 9.70618L7.37675 13.908C8.61925 10.0595 12.161 7.29139 16.3642 7.29139Z" fill="#EA4335"/>
<path fill-rule="evenodd" clip-rule="evenodd" d="M16.3642 26.5863C12.1612 26.5863 8.6195 23.8182 7.377 19.9697L1.9845 24.1707C4.59025 29.5705 10.0322 33.2654 16.3642 33.2654C20.2722 33.2654 24.0035 31.8493 26.8037 29.1963L21.6852 25.1585C20.241 26.0868 18.4222 26.5863 16.3642 26.5863Z" fill="#34A853"/>
<path fill-rule="evenodd" clip-rule="evenodd" d="M31.6585 16.9388C31.6585 15.974 31.5128 14.935 31.2943 13.9705H16.3643V20.2784H24.9583C24.5285 22.4291 23.359 24.0824 21.6853 25.1585L26.8038 29.1962C29.7453 26.4105 31.6585 22.2605 31.6585 16.9388Z" fill="#4285F4"/>
</g>
<defs>
<clipPath id="clip0">
<rect width="32" height="32.6531" fill="white" transform="translate(0 0.612305)"/>
</clipPath>
</defs>
</svg>
