<svg width="136" height="28" viewBox="0 0 136 28" fill="none" xmlns="http://www.w3.org/2000/svg">
<path d="M47.7511 7.0647H42.0089V19.8155H47.6648C49.7803 19.8155 51.3778 19.2555 52.5003 18.1785C53.6229 17.1016 54.1841 15.5078 54.1841 13.397C54.1841 11.4155 53.6229 9.8647 52.4572 8.7447C51.2914 7.6247 49.694 7.0647 47.7511 7.0647ZM49.5645 15.7662C49.0895 16.3262 48.3556 16.5847 47.4057 16.5847H45.8514V10.2524H47.0172C48.0534 10.2524 48.8305 10.5109 49.4349 11.0709C49.9962 11.5878 50.2984 12.4062 50.2984 13.4832C50.2984 14.4309 50.0394 15.2062 49.5645 15.7662ZM64.9778 15.3355C64.9778 14.6032 64.9778 14.0862 64.9778 13.6985C64.9778 12.9232 64.8914 12.3632 64.7187 12.0185C64.2006 10.8555 62.7327 10.2955 60.3581 10.2955C57.3359 10.2955 55.8248 11.3293 55.7384 13.397H59.0629C59.1061 13.0524 59.2356 12.7939 59.4514 12.6647C59.6241 12.5355 59.9695 12.4493 60.4013 12.4493C61.1784 12.4493 61.567 12.7078 61.567 13.2678C61.567 13.4401 61.5238 13.5693 61.4375 13.6985C61.3511 13.8278 61.2216 13.9139 61.0489 13.957C60.8762 14.0001 60.7467 14.0432 60.6172 14.0862C60.4876 14.1293 60.3149 14.1293 60.0991 14.1293C59.8832 14.1293 59.7105 14.1724 59.6673 14.1724C59.6241 14.1724 59.5378 14.2155 59.4514 14.2155C58.847 14.3016 58.4584 14.3447 58.2857 14.3878C58.0699 14.4309 57.7245 14.517 57.2495 14.6462C56.7746 14.7755 56.4292 14.9478 56.2565 15.1632C56.0407 15.3355 55.868 15.5939 55.6521 15.9816C55.4794 16.3262 55.3499 16.7139 55.3499 17.1878C55.3499 18.0924 55.6521 18.8247 56.2565 19.2985C56.861 19.8155 57.6813 20.0739 58.7175 20.0739C59.9264 20.0739 60.9194 19.6862 61.6965 18.9109C61.6965 19.1693 61.7397 19.4709 61.826 19.7724H65.4095C65.1505 19.2555 65.021 18.3509 65.021 17.1447C64.9346 16.6709 64.9346 16.0678 64.9778 15.3355ZM61.5238 16.1539C61.5238 16.6709 61.4375 17.0585 61.308 17.317C61.0057 17.7909 60.574 18.0493 59.9264 18.0493C59.6241 18.0493 59.3651 17.9632 59.1924 17.7909C59.0197 17.6185 58.9334 17.4032 58.9334 17.1016C58.9334 16.5847 59.2356 16.2832 59.8832 16.1539C60.7035 15.9816 61.2648 15.8093 61.5238 15.637V16.1539ZM73.181 10.2955C71.9721 10.2955 70.9791 10.7693 70.2451 11.6739V10.5109H66.8343V19.8155H70.3746V14.7324C70.3746 13.6985 70.8495 13.1816 71.7562 13.1816C72.5765 13.1816 72.9651 13.6555 72.9651 14.6462V19.8155H76.5486V13.957C76.5486 12.8801 76.2895 11.9755 75.7714 11.2862C75.2102 10.6401 74.3467 10.2955 73.181 10.2955ZM82.6794 7.71085H79.1391V10.5539H77.628V12.7509H79.1391V16.8862C79.1391 18.0062 79.3981 18.7816 79.9594 19.2124C80.5206 19.6862 81.4273 19.9016 82.7226 19.9016C83.2407 19.9016 83.8883 19.8585 84.5791 19.8155V17.2739C84.4064 17.317 84.1905 17.317 83.8451 17.317C83.327 17.317 83.0248 17.2309 82.8521 17.0585C82.7225 16.8862 82.6362 16.5416 82.6362 16.0678V12.7509H84.5359V10.5539H82.6362V7.71085H82.6794ZM95.5886 15.6801C95.5886 14.0432 95.1137 12.7509 94.207 11.7601C93.3003 10.8124 92.0483 10.2955 90.494 10.2955C89.026 10.2955 87.774 10.7693 86.8241 11.6739C85.8743 12.6216 85.3994 13.7847 85.3994 15.2493C85.3994 16.757 85.8743 17.9201 86.9105 18.7385C87.9035 19.6001 89.1556 20.0309 90.6667 20.0309C91.746 20.0309 92.7391 19.7724 93.6889 19.2555C94.5956 18.7385 95.2 17.9632 95.4591 17.0155H92.1346C91.7892 17.5324 91.3143 17.7909 90.6235 17.7909C90.0622 17.7909 89.6305 17.6185 89.3283 17.317C89.026 17.0155 88.8533 16.5416 88.8102 15.9385H95.6318V15.6801H95.5886ZM88.767 14.1724C88.9397 13.1385 89.501 12.5785 90.4508 12.5785C91.4438 12.5785 92.0051 13.0955 92.0914 14.1724H88.767Z" fill="#00C2EB"/>
<path d="M13.0388 27.0953C11.9162 26.0184 11.3981 25.6307 10.2756 25.1138C8.11685 24.1661 5.56955 23.7784 1.59748 23.7784H0.302246V11.9753V0.215332H1.59748C3.36764 0.215332 4.14479 0.258409 5.22415 0.344563C8.76447 0.646101 11.614 1.50764 13.6432 2.92918L13.8159 3.05841L13.9886 2.92918C15.8451 1.63687 18.3924 0.775332 21.5873 0.430717C22.9257 0.258409 24.0051 0.215332 26.0775 0.215332H27.3727V12.0184V23.8215H26.0343C22.0191 23.8215 19.4718 24.2092 17.313 25.1999C16.2337 25.6738 15.6724 26.0615 14.593 27.1384C14.2045 27.5261 13.8591 27.8707 13.8591 27.8707C13.8591 27.8707 13.4273 27.5261 13.0388 27.0953ZM12.0457 14.1292V5.98764L11.873 5.85841C10.3188 4.69533 7.94415 3.96302 4.83558 3.70456C4.49018 3.66149 3.79939 3.61841 3.66987 3.61841H3.62669V12.0615V20.5046H3.75621C4.05844 20.5046 5.35367 20.5907 6.00129 20.6769C8.28955 20.9353 10.3188 21.4523 11.8299 22.1846C11.9162 22.2276 12.0457 22.2707 12.0457 22.2707C12.0457 22.2707 12.0457 18.6092 12.0457 14.1292ZM15.7588 22.1415C17.5289 21.323 19.8603 20.763 22.4508 20.5476C22.9257 20.5046 23.6165 20.4615 23.7892 20.4615H23.9188V12.0615V3.61841H23.8324C23.6165 3.61841 22.5803 3.70456 22.1486 3.74764C19.2559 4.04918 17.0972 4.73841 15.6292 5.85841L15.4565 5.98764V14.1292C15.4565 20.6338 15.4565 22.2707 15.4565 22.2707C15.4565 22.2707 15.5861 22.1846 15.7588 22.1415Z" fill="white"/>
<path d="M103.921 12.7938V15.5077H105.605C105.346 16.4984 104.612 17.0154 103.403 17.0154C102.497 17.0154 101.849 16.7138 101.374 16.1538C100.899 15.5938 100.683 14.7323 100.683 13.6123C100.683 11.2 101.503 9.99382 103.187 9.99382C104.267 9.99382 104.914 10.5107 105.173 11.5015H108.93C108.757 10.08 108.152 8.91689 107.073 8.05536C105.994 7.19382 104.698 6.71997 103.274 6.71997C101.374 6.71997 99.7765 7.32305 98.5676 8.57228C97.3587 9.82151 96.7543 11.4154 96.7543 13.3969C96.7543 15.3784 97.3155 16.9723 98.4381 18.2215C99.5606 19.4707 101.029 20.0738 102.842 20.0738C104.396 20.0738 105.648 19.5569 106.555 18.48L106.684 19.7723H109.189V12.7938H103.921Z" fill="white"/>
<path d="M117.133 10.2954C116.485 10.2954 115.967 10.4246 115.535 10.7262C115.104 10.9846 114.715 11.4154 114.37 12.0185V10.5969H110.959V19.8154H114.499V15.6369C114.499 14.9046 114.672 14.3446 115.06 13.9569C115.449 13.5693 115.967 13.3539 116.701 13.3539C117.09 13.3539 117.521 13.44 117.996 13.6123V10.5108C117.737 10.3816 117.435 10.2954 117.133 10.2954Z" fill="white"/>
<path d="M128.099 17.1877C128.099 16.6708 128.099 16.0677 128.099 15.3354C128.099 14.6031 128.099 14.0862 128.099 13.6985C128.099 12.9231 128.013 12.3631 127.84 12.0185C127.322 10.8554 125.854 10.2954 123.479 10.2954C120.457 10.2954 118.946 11.3293 118.86 13.3969H122.184C122.227 13.0523 122.357 12.7939 122.573 12.6646C122.745 12.5354 123.091 12.4493 123.523 12.4493C124.3 12.4493 124.688 12.7077 124.688 13.2677C124.688 13.44 124.645 13.5693 124.559 13.6985C124.472 13.8277 124.343 13.9139 124.17 13.9569C123.997 14 123.868 14.0431 123.738 14.0862C123.609 14.1293 123.436 14.1293 123.22 14.1293C123.004 14.1293 122.832 14.1723 122.789 14.1723C122.745 14.1723 122.659 14.2154 122.573 14.2154C121.968 14.3016 121.58 14.3446 121.407 14.3877C121.191 14.4308 120.846 14.5169 120.371 14.6462C119.896 14.7754 119.55 14.9477 119.378 15.1631C119.162 15.3354 118.989 15.5939 118.773 15.9816C118.601 16.3262 118.471 16.7139 118.471 17.1877C118.471 18.0923 118.773 18.8246 119.378 19.2985C119.982 19.7723 120.803 20.0739 121.839 20.0739C123.048 20.0739 124.041 19.6862 124.818 18.9108C124.818 19.1693 124.861 19.4708 124.947 19.7723H128.531C128.229 19.2985 128.099 18.3939 128.099 17.1877ZM124.688 16.1539C124.688 16.6708 124.602 17.0585 124.472 17.317C124.17 17.7908 123.738 18.0493 123.091 18.0493C122.789 18.0493 122.529 17.9631 122.357 17.7908C122.184 17.6185 122.098 17.4031 122.098 17.1016C122.098 16.5846 122.4 16.2831 123.048 16.1539C123.868 15.9816 124.429 15.8093 124.688 15.6369V16.1539Z" fill="white"/>
<path d="M134.489 7.0647C133.884 7.0647 133.366 7.10777 132.935 7.19393C132.503 7.28008 132.071 7.40931 131.726 7.6247C131.38 7.84008 131.078 8.14162 130.862 8.57239C130.69 9.00316 130.603 9.52008 130.603 10.1662V10.5539H129.092V12.7509H130.56V19.8155H134.1V12.7509H135.914V10.5539H134.1V10.1232C134.1 9.8647 134.187 9.64931 134.316 9.60624C134.446 9.52008 134.748 9.47701 135.223 9.47701C135.482 9.47701 135.741 9.47701 136 9.47701V7.0647C135.309 7.0647 134.834 7.0647 134.489 7.0647Z" fill="white"/>
</svg>
