<svg width="80" height="81" viewBox="0 0 80 81" fill="none" xmlns="http://www.w3.org/2000/svg">
<path d="M40 70.9053C56.5685 70.9053 70 57.4739 70 40.9053C70 24.3368 56.5685 10.9053 40 10.9053C23.4315 10.9053 10 24.3368 10 40.9053C10 57.4739 23.4315 70.9053 40 70.9053Z" stroke="black" stroke-width="5" stroke-linecap="round" stroke-linejoin="round"/>
<path d="M30 30.9053H30.0333" stroke="black" stroke-width="5" stroke-linecap="round" stroke-linejoin="round"/>
<path d="M50 30.9053H50.0333" stroke="black" stroke-width="5" stroke-linecap="round" stroke-linejoin="round"/>
<path d="M53.3333 44.2387H26.6667M26.6667 44.2387C26.6667 47.7749 28.0714 51.1663 30.5719 53.6668C33.0724 56.1672 36.4638 57.572 40 57.572C43.5362 57.572 46.9276 56.1672 49.4281 53.6668C51.9286 51.1663 53.3333 47.7749 53.3333 44.2387H26.6667Z" stroke="black" stroke-width="3" stroke-linecap="round" stroke-linejoin="round"/>
</svg>
