<svg width="81" height="81" viewBox="0 0 81 81" fill="none" xmlns="http://www.w3.org/2000/svg">
<g clip-path="url(#clip0)">
<path d="M13.5 43.606C19.5179 44.3124 25.1203 46.9978 29.4055 51.2301C33.6908 55.4625 36.4098 60.9957 37.125 66.9393C40.1082 65.2407 42.6036 62.8188 44.3752 59.9024C46.1469 56.9861 47.1363 53.6718 47.25 50.2727C52.917 48.3037 57.8656 44.7193 61.47 39.9727C65.0745 35.2261 67.1729 29.5305 67.5 23.606C67.5 20.9538 66.4332 18.4103 64.5344 16.5349C62.6356 14.6596 60.0603 13.606 57.375 13.606C51.3765 13.929 45.6096 16.0016 40.8037 19.5615C35.9978 23.1215 32.3685 28.009 30.375 33.606C26.9334 33.7183 23.5776 34.6955 20.6248 36.4452C17.6721 38.195 15.2199 40.6596 13.5 43.606" stroke="black" stroke-width="5" stroke-linecap="round" stroke-linejoin="round"/>
<path d="M23.625 46.9393C20.1124 48.8979 17.2721 51.848 15.4681 55.4113C13.6642 58.9746 12.9789 62.9888 13.5 66.9393C17.4999 67.454 21.5643 66.7772 25.1722 64.9955C28.78 63.2138 31.7669 60.4086 33.75 56.9393" stroke="black" stroke-width="5" stroke-linecap="round" stroke-linejoin="round"/>
<path d="M50.625 33.606C52.489 33.606 54 32.1136 54 30.2727C54 28.4317 52.489 26.9393 50.625 26.9393C48.7611 26.9393 47.25 28.4317 47.25 30.2727C47.25 32.1136 48.7611 33.606 50.625 33.606Z" stroke="black" stroke-width="3" stroke-linecap="round" stroke-linejoin="round"/>
</g>
<defs>
<clipPath id="clip0">
<rect width="81" height="80" fill="white" transform="translate(0 0.272659)"/>
</clipPath>
</defs>
</svg>
