<svg width="80" height="81" viewBox="0 0 80 81" fill="none" xmlns="http://www.w3.org/2000/svg">
<path d="M30 37.572C37.3638 37.572 43.3334 31.6024 43.3334 24.2386C43.3334 16.8748 37.3638 10.9053 30 10.9053C22.6362 10.9053 16.6667 16.8748 16.6667 24.2386C16.6667 31.6024 22.6362 37.572 30 37.572Z" stroke="black" stroke-width="5" stroke-linecap="round" stroke-linejoin="round"/>
<path d="M10 70.9053V64.2386C10 60.7024 11.4048 57.311 13.9052 54.8106C16.4057 52.3101 19.7971 50.9053 23.3333 50.9053H36.6667C40.2029 50.9053 43.5943 52.3101 46.0948 54.8106C48.5952 57.311 50 60.7024 50 64.2386V70.9053" stroke="black" stroke-width="5" stroke-linecap="round" stroke-linejoin="round"/>
<path d="M53.3334 11.3387C56.2014 12.073 58.7435 13.741 60.5588 16.0797C62.3741 18.4184 63.3595 21.2948 63.3595 24.2553C63.3595 27.2159 62.3741 30.0923 60.5588 32.431C58.7435 34.7697 56.2014 36.4377 53.3334 37.172" stroke="black" stroke-width="5" stroke-linecap="round" stroke-linejoin="round"/>
<path d="M70 70.9053V64.2387C69.9831 61.2959 68.993 58.4413 67.1842 56.12C65.3754 53.7987 62.8494 52.141 60 51.4053" stroke="black" stroke-width="5" stroke-linecap="round" stroke-linejoin="round"/>
</svg>
