<svg width="200" height="176" viewBox="0 0 200 176" fill="none" xmlns="http://www.w3.org/2000/svg">
<path d="M81.4703 144.382L77.2011 100.443L60.7207 107.299L53.1299 156.714C52.5628 160.413 53.9786 164.049 56.7113 166.438L88.2198 153.33C84.4774 151.838 81.8618 148.403 81.4703 144.382Z" fill="#DADADA"/>
<path d="M61.5988 107.985L54.092 156.86C53.4555 160.997 55.5151 165.087 59.2282 167.033L70.609 173C71.798 173.625 73.1881 173.68 74.4282 173.168L102.875 161.334C103.314 161.147 103.343 160.737 103.343 160.617C103.339 160.496 103.295 160.09 102.849 159.922L88.0443 154.328C83.8299 152.737 80.9399 148.961 80.5046 144.48L76.3635 101.84L61.5988 107.985ZM72.6942 175.454C71.6663 175.454 70.6456 175.209 69.7091 174.719L58.3246 168.753C53.8835 166.422 51.4069 161.524 52.1751 156.563L59.766 107.151C59.8172 106.818 60.0367 106.537 60.3513 106.405L76.8317 99.5458C77.1097 99.4251 77.439 99.4507 77.7024 99.608C77.9658 99.7653 78.1377 100.04 78.1706 100.347L82.4362 144.29C82.802 148.032 85.2128 151.186 88.732 152.517L103.533 158.107C104.58 158.498 105.264 159.472 105.282 160.587C105.3 161.699 104.649 162.694 103.621 163.123L75.1709 174.961C74.3734 175.294 73.5356 175.454 72.6942 175.454Z" fill="#41404D"/>
<path d="M11.2601 168.224C11.1101 168.224 10.9638 168.191 10.8284 168.121L2.67052 164.042C0.969436 162.989 0 161.251 0 159.349V59.7458C0 55.1255 2.75832 50.9989 7.02018 49.2247L95.9559 12.002C96.4461 11.7971 97.0204 12.0276 97.229 12.5215C97.4375 13.0153 97.1997 13.586 96.7058 13.7909L7.76646 51.0136C4.22894 52.4878 1.94253 55.9156 1.94253 59.7458V159.349C1.94253 160.578 2.56809 161.698 3.61435 162.352L11.6918 166.384C12.1747 166.625 12.3685 167.207 12.1271 167.686C11.9588 168.026 11.6186 168.224 11.2601 168.224Z" fill="#41404D"/>
<path d="M108.593 8.7876C108.209 8.7876 107.847 8.56079 107.694 8.18033C107.492 7.68281 107.734 7.11944 108.228 6.91823L123.194 0.889438C124.675 0.274852 127.708 -0.518989 129.665 0.461423L137.26 3.90383C137.746 4.12333 137.966 4.69768 137.742 5.18422C137.519 5.67077 136.952 5.88661 136.458 5.66711L128.831 2.21372C127.744 1.67596 125.498 2.03081 123.929 2.6893L108.956 8.71809C108.835 8.76565 108.714 8.7876 108.593 8.7876Z" fill="#41404D"/>
<path d="M14.7457 53.8052L133.013 4.60179C135.976 3.36896 139.24 5.54561 139.24 8.75389V107.647C139.24 111.84 136.73 115.622 132.871 117.25L14.5737 167.178C11.6069 168.429 8.32544 166.253 8.32544 163.033V63.4301C8.32544 59.2195 10.8606 55.4222 14.7457 53.8052Z" fill="white"/>
<path d="M20.7372 63.7153V51.3139L26.5575 48.8921V61.2936L20.7372 63.7153Z" fill="#DADADA"/>
<path d="M133.012 4.6008H133.034H133.012ZM134.753 5.21904C134.292 5.21904 133.831 5.31049 133.385 5.49707L15.1138 54.6969C11.5835 56.1748 9.29714 59.6026 9.29714 63.4291V163.032C9.29714 164.239 9.87148 165.311 10.8775 165.973C11.8799 166.643 13.0907 166.756 14.1955 166.281L132.489 116.357C136.001 114.875 138.269 111.455 138.269 107.643V8.7529C138.269 7.55666 137.698 6.4848 136.699 5.819C136.103 5.4239 135.43 5.21904 134.753 5.21904ZM12.8237 168.505C11.7628 168.505 10.7129 168.198 9.80563 167.594C8.26917 166.577 7.35461 164.872 7.35461 163.032V63.4291C7.35461 58.8124 10.1093 54.6822 14.3711 52.9116L132.639 3.70453C134.325 3.00215 136.246 3.18504 137.779 4.2057C139.3 5.21904 140.211 6.92012 140.211 8.7529V107.643C140.211 112.241 137.479 116.36 133.246 118.146L14.9528 168.073C14.2687 168.359 13.5444 168.505 12.8237 168.505Z" fill="#41404D"/>
<path d="M68.9154 130.671V120.252L74.7357 117.831V128.249L68.9154 130.671Z" fill="#DADADA"/>
<path d="M139.238 100.979L8.328 156.259L139.238 100.979Z" fill="#DADADA"/>
<path d="M8.32566 157.233C7.9452 157.233 7.58669 157.009 7.42939 156.64C7.22452 156.146 7.45499 155.575 7.9452 155.367L138.859 100.083C139.364 99.8712 139.928 100.113 140.132 100.603C140.337 101.097 140.107 101.667 139.617 101.876L8.70612 157.156C8.57808 157.211 8.45004 157.233 8.32566 157.233Z" fill="#41404D"/>
<path d="M139.238 100.98V107.631C139.238 111.816 136.725 115.606 132.851 117.234L14.58 167.187C11.5875 168.42 8.328 166.262 8.328 163.046V156.26L139.238 100.98Z" fill="#DADADA"/>
<path d="M9.29714 156.906V163.044C9.29714 164.237 9.86052 165.298 10.8519 165.96C11.8543 166.633 13.0761 166.754 14.2138 166.286L132.474 116.339C135.993 114.858 138.265 111.441 138.265 107.629V102.442L9.29714 156.906ZM12.8237 168.502C11.7482 168.502 10.6836 168.188 9.76906 167.577C8.2582 166.564 7.35461 164.866 7.35461 163.044V156.262C7.35461 155.871 7.5924 155.519 7.94725 155.369L138.858 100.086C139.161 99.9652 139.505 99.9871 139.772 100.174C140.043 100.353 140.208 100.657 140.208 100.978V107.629C140.208 112.224 137.468 116.343 133.228 118.128L14.9601 168.078C14.2687 168.363 13.5444 168.502 12.8237 168.502Z" fill="#41404D"/>
<path d="M17.8853 64.9005L131.119 17.7933V94.1775L17.8853 141.965V64.9005Z" fill="#00C2EB"/>
<path d="M18.857 65.5494V140.503L130.148 93.535V19.247L18.857 65.5494ZM17.8875 142.936C17.6973 142.936 17.5107 142.885 17.3498 142.771C17.0791 142.596 16.9181 142.292 16.9181 141.967V64.9019C16.9181 64.5105 17.1522 64.1556 17.5144 64.0056L130.748 16.8947C131.045 16.774 131.388 16.8069 131.655 16.9862C131.926 17.1654 132.091 17.469 132.091 17.791V94.1789C132.091 94.5703 131.857 94.9215 131.498 95.0752L18.2643 142.859C18.1436 142.91 18.0156 142.936 17.8875 142.936Z" fill="#41404D"/>
<path d="M8.32544 156.259L139.24 101.005L8.32544 156.259Z" fill="white"/>
<path d="M8.32566 157.229C7.9452 157.229 7.58669 157.006 7.42939 156.636C7.22452 156.142 7.45499 155.572 7.9452 155.363L138.863 100.113C139.364 99.8967 139.931 100.138 140.136 100.628C140.345 101.126 140.11 101.693 139.62 101.901L8.70612 157.152C8.57808 157.207 8.45004 157.229 8.32566 157.229Z" fill="#41404D"/>
<path d="M77.861 56.1613L183.116 12.372C185.22 11.4977 187.535 13.0415 187.535 15.3206V83.086C187.535 85.409 186.145 87.5052 184.005 88.4088L79.2072 132.637C76.8769 133.621 74.3015 131.913 74.3015 129.385V61.495C74.3015 59.1647 75.7063 57.0576 77.861 56.1613Z" fill="white"/>
<path d="M30.0767 22.3253L60.817 9.26536C63.3119 8.20446 66.0812 10.0372 66.0812 12.748V79.6501C66.0812 81.9365 64.7313 84.0107 62.6388 84.9362L32.0376 98.4644C29.4585 99.6058 26.5575 97.7145 26.5575 94.8976V27.6444C26.5575 25.3251 27.944 23.2326 30.0767 22.3253Z" fill="white"/>
<path d="M30.0789 22.3255H30.1008H30.0789ZM62.3081 9.9277C61.9349 9.9277 61.5618 10.0045 61.1959 10.1582L30.4593 23.2218C28.6778 23.9754 27.5291 25.713 27.5291 27.6446V94.8942C27.5291 95.9039 28.0156 96.7965 28.8607 97.3525C29.7131 97.9013 30.7154 97.9854 31.6446 97.5793L62.2459 84.0511C63.9872 83.2792 65.1139 81.5525 65.1139 79.6503V12.7482C65.1139 11.7897 64.653 10.9337 63.8482 10.4033C63.3763 10.0887 62.8458 9.9277 62.3081 9.9277ZM30.4593 99.7706C29.5301 99.7706 28.6046 99.5072 27.7998 98.9804C26.4133 98.0769 25.5865 96.5477 25.5865 94.8942V27.6446C25.5865 24.9302 27.2035 22.4938 29.6984 21.4329L60.4387 8.37294C61.9093 7.74372 63.5848 7.90102 64.92 8.78266C66.259 9.66796 67.0528 11.1496 67.0528 12.7482V79.6503C67.0528 82.3208 65.4761 84.7425 63.0324 85.8217L32.4311 99.3536C31.7983 99.6353 31.1251 99.7706 30.4593 99.7706Z" fill="#41404D"/>
<path d="M59.3964 35.9423L34.3008 46.3829V53.2202L59.3488 42.8015L59.3964 35.9423Z" fill="white"/>
<path d="M35.2724 47.0332V51.7633L58.3815 42.1494L58.4144 37.4047L35.2724 47.0332ZM34.3029 54.1924C34.1127 54.1924 33.9261 54.1339 33.7615 54.0278C33.4945 53.8448 33.3298 53.5449 33.3298 53.2193V46.3857C33.3298 45.9942 33.5676 45.6394 33.9298 45.4894L59.0254 35.0488C59.318 34.9134 59.6619 34.961 59.9363 35.1366C60.207 35.3195 60.368 35.6268 60.3643 35.9524L60.3204 42.8079C60.3167 43.192 60.0826 43.5432 59.7204 43.6932L34.6724 54.1156C34.5553 54.1668 34.4273 54.1924 34.3029 54.1924Z" fill="#41404D"/>
<path d="M59.3964 47.8374L34.3008 58.2781V65.1154L59.3488 54.6967L59.3964 47.8374Z" fill="white"/>
<path d="M35.2724 58.926V63.6598L58.3815 54.0459L58.4144 49.2975L35.2724 58.926ZM34.3029 66.0889C34.1127 66.0889 33.9261 66.0303 33.7615 65.9242C33.4945 65.7413 33.3298 65.4414 33.3298 65.1158V58.2785C33.3298 57.8871 33.5676 57.5322 33.9298 57.3822L59.0254 46.9416C59.318 46.8099 59.6619 46.8501 59.9363 47.033C60.207 47.2123 60.368 47.5196 60.3643 47.8452L60.3204 54.7044C60.3167 55.0885 60.0826 55.4397 59.7204 55.5897L34.6724 66.012C34.5553 66.0633 34.4273 66.0889 34.3029 66.0889Z" fill="#41404D"/>
<path d="M41.5589 80.0347C41.1784 80.0347 40.8199 79.8115 40.6626 79.4347C40.4541 78.9445 40.6919 78.3738 41.1857 78.169L51.7178 73.79C52.2117 73.5779 52.7787 73.8156 52.9872 74.3168C53.1958 74.807 52.958 75.3777 52.4605 75.5789L41.932 79.9578C41.8076 80.0127 41.6833 80.0347 41.5589 80.0347Z" fill="#41404D"/>
<path d="M27.6155 32.2792C27.2351 32.2792 26.8766 32.0524 26.7192 31.6792C26.5107 31.1854 26.7485 30.6183 27.2424 30.4135L65.7125 14.405C66.1991 14.2111 66.7734 14.4379 66.9783 14.9281C67.1868 15.4256 66.9527 15.9926 66.4552 16.1975L27.9887 32.2024C27.8643 32.2572 27.7399 32.2792 27.6155 32.2792Z" fill="#41404D"/>
<path d="M187.535 86.9146V47.9506L157.636 60.7215C155.504 61.6288 154.117 63.725 154.117 66.0406V101.076L187.535 86.9146Z" fill="#DADADA"/>
<path d="M183.114 12.3707H183.136H183.114ZM184.35 13.0913C184.057 13.0913 183.768 13.1499 183.487 13.2669L78.2353 57.0562C76.4354 57.8025 75.2721 59.5474 75.2721 61.4973V129.383C75.2721 130.258 75.6892 131.037 76.4172 131.516C77.1451 132.003 78.0195 132.094 78.8316 131.743L183.622 87.5148C185.411 86.7612 186.563 85.0235 186.563 83.0883V15.3192C186.563 14.562 186.205 13.8888 185.576 13.4718C185.199 13.2194 184.775 13.0913 184.35 13.0913ZM77.8366 133.89C76.9622 133.89 76.0952 133.634 75.3453 133.137C74.0869 132.299 73.3333 130.894 73.3333 129.383V61.4973C73.3333 58.7573 74.9648 56.3136 77.489 55.2673L182.741 11.4744C184.028 10.9403 185.492 11.0756 186.651 11.8549C187.811 12.6267 188.506 13.9218 188.506 15.3192V83.0883C188.506 85.81 186.885 88.2464 184.376 89.3036L79.5852 133.536C79.0218 133.773 78.4255 133.89 77.8366 133.89Z" fill="#41404D"/>
<path d="M177.007 32.9034C176.634 32.9034 176.261 32.9802 175.898 33.1339L129.406 53.0348C127.624 53.792 126.475 55.5297 126.475 57.4612V111.655L179.816 89.2039V35.7239C179.816 34.7655 179.359 33.9058 178.558 33.379C178.079 33.0644 177.548 32.9034 177.007 32.9034ZM125.506 114.084C125.316 114.084 125.129 114.032 124.965 113.923C124.698 113.743 124.533 113.443 124.533 113.114V57.4612C124.533 54.7468 126.146 52.3104 128.645 51.2495L175.138 31.3487C176.626 30.7231 178.302 30.8731 179.63 31.762C180.961 32.6473 181.755 34.1216 181.755 35.7239V89.8477C181.755 90.2391 181.521 90.594 181.163 90.744L125.879 114.01C125.758 114.058 125.634 114.084 125.506 114.084Z" fill="#41404D"/>
<path d="M86.9436 69.4669L113.36 58.2434C115.507 57.3325 117.885 58.9055 117.885 61.2358V116.314L83.9182 130.655V74.0397C83.9182 72.046 85.1108 70.2461 86.9436 69.4669Z" fill="white"/>
<path d="M86.946 69.4683H86.9679H86.946ZM114.643 58.9508C114.339 58.9508 114.035 59.013 113.743 59.1374L87.3264 70.3646C85.8485 70.9901 84.89 72.4315 84.89 74.0374V129.189L116.918 115.665V61.2372C116.918 60.458 116.541 59.763 115.894 59.3313C115.51 59.0789 115.078 58.9508 114.643 58.9508ZM83.9206 131.622C83.7304 131.622 83.5438 131.571 83.3865 131.461C83.1121 131.282 82.9512 130.978 82.9512 130.653V74.0374C82.9512 71.6486 84.3706 69.5049 86.5655 68.572L112.982 57.3485C114.291 56.7961 115.78 56.9315 116.966 57.7143C118.151 58.4972 118.861 59.8178 118.861 61.2372V116.312C118.861 116.704 118.626 117.055 118.268 117.205L84.3011 131.549C84.1803 131.596 84.0486 131.622 83.9206 131.622Z" fill="#41404D"/>
<path d="M91.1309 102.815C90.7504 102.815 90.3919 102.592 90.2346 102.215C90.0261 101.725 90.2639 101.154 90.7578 100.949L111.734 92.2243C112.228 92.0158 112.791 92.2499 113.004 92.7475C113.212 93.2377 112.974 93.8084 112.477 94.0132L91.504 102.738C91.3797 102.793 91.2553 102.815 91.1309 102.815Z" fill="#41404D"/>
<path d="M134.509 80.4046L165.685 67.4361V88.4674L134.509 101.622V80.4046Z" fill="#00C2EB"/>
<path d="M135.48 81.0537V100.161L164.716 87.8215V68.8864L135.48 81.0537ZM134.507 102.594C134.32 102.594 134.133 102.542 133.969 102.433C133.702 102.253 133.537 101.95 133.537 101.624V80.4062C133.537 80.0148 133.771 79.6599 134.137 79.51L165.316 66.5378C165.613 66.4061 165.953 66.4464 166.224 66.6256C166.494 66.8049 166.655 67.1048 166.655 67.4304V88.4653C166.655 88.8568 166.421 89.208 166.066 89.3616L134.887 102.52C134.766 102.568 134.638 102.594 134.507 102.594Z" fill="#41404D"/>
<path d="M95.881 107.239C95.5005 107.239 95.142 107.016 94.9884 106.639C94.7798 106.149 95.014 105.578 95.5078 105.373L106.987 100.603C107.474 100.383 108.045 100.625 108.253 101.126C108.458 101.616 108.228 102.187 107.73 102.392L96.2541 107.162C96.1334 107.217 96.0054 107.239 95.881 107.239Z" fill="#41404D"/>
<path d="M134.596 62.9521C134.216 62.9521 133.857 62.729 133.7 62.3522C133.491 61.862 133.729 61.2913 134.223 61.0864L171.325 45.6523C171.815 45.4401 172.386 45.6779 172.591 46.1754C172.799 46.6693 172.565 47.24 172.068 47.4412L134.969 62.8753C134.845 62.9302 134.721 62.9521 134.596 62.9521Z" fill="#41404D"/>
<path d="M74.3027 66.1483C73.9222 66.1483 73.5637 65.9252 73.4064 65.5484C73.1979 65.0582 73.4356 64.4875 73.9295 64.2826L186.304 17.5265C186.794 17.329 187.365 17.5558 187.569 18.0497C187.778 18.5435 187.544 19.1142 187.046 19.3191L74.6758 66.0715C74.5514 66.1264 74.427 66.1483 74.3027 66.1483Z" fill="#41404D"/>
<path d="M107.42 84.1057C105.712 88.2139 101.728 90.4601 98.5234 89.1285C95.3224 87.7969 94.1116 83.3851 95.82 79.2805C97.5284 75.1723 101.509 72.9225 104.713 74.2541C107.918 75.5893 109.129 79.9975 107.42 84.1057Z" fill="white"/>
<path d="M102.758 74.8366C100.42 74.8366 97.9327 76.7206 96.7108 79.6508C95.2146 83.2579 96.1987 87.11 98.8948 88.2367C101.613 89.3488 105.026 87.3332 106.522 83.7371C108.018 80.1264 107.042 76.2779 104.338 75.1475C103.83 74.939 103.299 74.8366 102.758 74.8366ZM100.446 90.4792C99.6667 90.4792 98.8912 90.3366 98.1522 90.0256C94.4574 88.4892 93.0124 83.4993 94.922 78.9082C96.8316 74.3098 101.39 71.8258 105.081 73.3586C108.776 74.8951 110.228 79.8813 108.315 84.4797C106.789 88.1526 103.566 90.4792 100.446 90.4792Z" fill="#41404D"/>
<path d="M163.023 63.2224L195.032 49.621C196.927 48.8162 199.027 50.2063 199.027 52.2622V95.6674C199.027 97.9538 197.677 100.028 195.585 100.95L163.535 115.122C161.64 115.96 159.503 114.57 159.503 112.495V68.5415C159.503 66.2221 160.89 64.1296 163.023 63.2224Z" fill="#00C2EB"/>
<path d="M163.022 63.2202H163.044H163.022ZM196.162 50.3578C195.91 50.3578 195.654 50.409 195.413 50.5115L163.403 64.1165C161.621 64.8701 160.473 66.6078 160.473 68.5393V112.493C160.473 113.148 160.787 113.73 161.34 114.085C161.885 114.443 162.539 114.502 163.147 114.235L195.193 100.062C196.934 99.2942 198.057 97.5675 198.057 95.6652V52.2601C198.057 51.6126 197.746 51.0346 197.205 50.6761C196.887 50.4639 196.528 50.3578 196.162 50.3578ZM162.379 116.338C161.643 116.338 160.912 116.126 160.279 115.712C159.185 114.999 158.534 113.799 158.534 112.493V68.5393C158.534 65.8249 160.143 63.3885 162.642 62.3276L194.655 48.7226C195.851 48.2178 197.201 48.3531 198.281 49.0555C199.356 49.7725 200 50.9688 200 52.2601V95.6652C200 98.3358 198.423 100.758 195.976 101.837L163.933 116.009C163.432 116.228 162.902 116.338 162.379 116.338Z" fill="#41404D"/>
<path d="M166.796 70.5943L193.212 59.2281V71.0808L166.796 82.6702V70.5943Z" fill="white"/>
<path d="M167.769 71.2348V81.1815L192.243 70.4482V60.699L167.769 71.2348ZM166.796 83.6399C166.613 83.6399 166.426 83.585 166.265 83.4789C165.995 83.3033 165.826 82.996 165.826 82.6668V70.5946C165.826 70.2068 166.06 69.8556 166.415 69.7056L192.831 58.3358C193.128 58.2041 193.475 58.237 193.75 58.4126C194.02 58.5955 194.185 58.8992 194.185 59.2247V71.0811C194.185 71.4652 193.958 71.8164 193.603 71.9664L167.187 83.5558C167.063 83.6143 166.931 83.6399 166.796 83.6399Z" fill="#41404D"/>
<path d="M170.297 92.0754C169.916 92.0754 169.558 91.8523 169.404 91.4755C169.195 90.9853 169.429 90.4146 169.923 90.2097L190.907 81.4811C191.397 81.269 191.968 81.5104 192.169 82.0079C192.381 82.4981 192.147 83.0688 191.65 83.2737L170.67 91.9986C170.545 92.0535 170.421 92.0754 170.297 92.0754Z" fill="#41404D"/>
<path d="M175.052 96.4996C174.671 96.4996 174.313 96.2728 174.155 95.8997C173.947 95.4058 174.185 94.8388 174.678 94.6339L186.154 89.8599C186.645 89.6514 187.215 89.8819 187.42 90.383C187.629 90.8769 187.394 91.4439 186.897 91.6488L175.425 96.4228C175.3 96.4777 175.176 96.4996 175.052 96.4996Z" fill="#41404D"/>
</svg>
