<svg width="100" height="180" viewBox="0 0 100 180" fill="none" xmlns="http://www.w3.org/2000/svg">
<path d="M97.9454 46.9846H97.1827C97.1045 46.9846 97.0375 47.0181 96.9631 47.0293V19.7401C96.9631 15.1894 93.2757 11.4983 88.725 11.4983H23.1885C18.6378 11.4983 14.9504 15.1894 14.9504 19.7401V41.6303H13.7634C13.0825 41.6303 12.5206 42.1847 12.5206 42.8693V56.3167C12.5206 56.9976 13.0825 57.5558 13.7634 57.5558H14.9504V61.3214H13.7634C13.0825 61.3214 12.5206 61.8795 12.5206 62.5641V76.0115C12.5206 76.6925 13.0825 77.2506 13.7634 77.2506H14.9504V171.758C14.9504 176.309 18.6378 180 23.1885 180H88.725C93.2757 180 96.9631 176.309 96.9631 171.758V71.8515C97.0375 71.8627 97.1045 71.8962 97.1827 71.8962H97.9454C98.7975 71.8962 99.4971 71.1967 99.4971 70.3409V48.5363C99.4971 47.6842 98.7975 46.9846 97.9454 46.9846Z" fill="#DADADA"/>
<path d="M86.1671 61.3254H85.4043C84.5522 61.3254 83.8527 60.6259 83.8527 59.7738V37.9692C83.8527 37.1134 84.5522 36.4139 85.4043 36.4139H86.1671C87.0191 36.4139 87.7187 37.1134 87.7187 37.9692V59.7738C87.7187 60.6259 87.0191 61.3254 86.1671 61.3254Z" fill="#DADADA"/>
<path d="M85.4054 37.3447C85.0668 37.3447 84.784 37.6312 84.784 37.9661V59.7744C84.784 60.1167 85.0631 60.3958 85.4054 60.3958H86.1682C86.5106 60.3958 86.7896 60.1167 86.7896 59.7744V37.9661C86.7896 37.6312 86.5068 37.3447 86.1682 37.3447H85.4054ZM86.1682 62.2562H85.4054C84.0361 62.2562 82.9236 61.1437 82.9236 59.7744V37.9661C82.9236 36.5968 84.0361 35.4842 85.4054 35.4842H86.1682C87.5375 35.4842 88.6501 36.5968 88.6501 37.9661V59.7744C88.6501 61.1437 87.5375 62.2562 86.1682 62.2562Z" fill="#41404D"/>
<path d="M3.36989 46.9862H1.98571C1.30106 46.9862 0.74292 46.4281 0.74292 45.7471V32.2997C0.74292 31.6151 1.30106 31.057 1.98571 31.057H3.36989C4.05082 31.057 4.60895 31.6151 4.60895 32.2997V45.7471C4.60895 46.4281 4.05082 46.9862 3.36989 46.9862Z" fill="#DADADA"/>
<path d="M1.98697 31.8011C1.71162 31.8011 1.48837 32.0243 1.48837 32.2997V45.7471C1.48837 46.015 1.71534 46.2457 1.98697 46.2457H3.37115C3.64278 46.2457 3.86603 46.0187 3.86603 45.7471V32.2997C3.86603 32.0243 3.64278 31.8011 3.37115 31.8011H1.98697ZM3.37115 47.7303H1.98697C0.89302 47.7303 0 46.841 0 45.7471V32.2997C0 31.2057 0.89302 30.3164 1.98697 30.3164H3.37115C4.4651 30.3164 5.3544 31.2057 5.3544 32.2997V45.7471C5.3544 46.841 4.4651 47.7303 3.37115 47.7303Z" fill="#41404D"/>
<path d="M3.36989 66.6815H1.98571C1.30106 66.6815 0.74292 66.1234 0.74292 65.4425V51.9951C0.74292 51.3104 1.30106 50.7523 1.98571 50.7523H3.36989C4.05082 50.7523 4.60895 51.3104 4.60895 51.9951V65.4425C4.60895 66.1234 4.05082 66.6815 3.36989 66.6815Z" fill="#DADADA"/>
<path d="M1.98697 51.4965C1.71162 51.4965 1.48837 51.7198 1.48837 51.9951V65.4425C1.48837 65.7104 1.71534 65.9411 1.98697 65.9411H3.37115C3.64278 65.9411 3.86603 65.7142 3.86603 65.4425V51.9951C3.86603 51.7198 3.64278 51.4965 3.37115 51.4965H1.98697ZM3.37115 67.4258H1.98697C0.89302 67.4258 0 66.5365 0 65.4425V51.9951C0 50.9012 0.89302 50.0119 1.98697 50.0119H3.37115C4.4651 50.0119 5.3544 50.9012 5.3544 51.9951V65.4425C5.3544 66.5365 4.4651 67.4258 3.37115 67.4258Z" fill="#41404D"/>
<path d="M76.9445 169.429H11.4118C6.86107 169.429 3.16992 165.738 3.16992 161.188V9.16956C3.16992 4.61887 6.86107 0.927719 11.4118 0.927719H76.9445C81.4952 0.927719 85.1864 4.61887 85.1864 9.16956V161.188C85.1864 165.738 81.4952 169.429 76.9445 169.429Z" fill="#DADADA"/>
<path d="M76.9464 170.36H11.4136C6.35691 170.36 2.24158 166.249 2.24158 161.188V149.698C2.24158 149.188 2.65832 148.768 3.17181 148.768C3.68529 148.768 4.10204 149.188 4.10204 149.698V161.188C4.10204 165.218 7.38016 168.5 11.4136 168.5H76.9464C80.9762 168.5 84.258 165.218 84.258 161.188V9.1701C84.258 5.14035 80.9762 1.86223 76.9464 1.86223H42.8442C42.3307 1.86223 41.914 1.44548 41.914 0.931992C41.914 0.418503 42.3307 0.00177002 42.8442 0.00177002H76.9464C82.0032 0.00177002 86.1185 4.11339 86.1185 9.1701V161.188C86.1185 166.249 82.0032 170.36 76.9464 170.36Z" fill="#41404D"/>
<path d="M3.1712 129.365C2.65771 129.365 2.24097 128.948 2.24097 128.435V9.17204C2.24097 4.11532 6.3563 -1.52588e-05 11.413 -1.52588e-05H21.1693C21.6828 -1.52588e-05 22.0995 0.416718 22.0995 0.930206C22.0995 1.44742 21.6828 1.86044 21.1693 1.86044H11.413C7.37955 1.86044 4.10143 5.14229 4.10143 9.17204V128.435C4.10143 128.948 3.68468 129.365 3.1712 129.365Z" fill="#41404D"/>
<path d="M75.7803 164.817H12.5768C10.2996 164.817 8.45398 162.972 8.45398 160.698V9.66628C8.45398 7.38908 10.2996 5.5435 12.5768 5.5435H75.7803C78.0575 5.5435 79.8993 7.38908 79.8993 9.66628V160.698C79.8993 162.972 78.0575 164.817 75.7803 164.817Z" fill="white"/>
<path d="M12.5775 6.47441C10.8175 6.47441 9.38866 7.90695 9.38866 9.66322V160.699C9.38866 162.455 10.8175 163.888 12.5775 163.888H75.781C77.5373 163.888 78.9698 162.455 78.9698 160.699V9.66322C78.9698 7.90695 77.5373 6.47441 75.781 6.47441H12.5775ZM75.781 165.748H12.5775C9.79052 165.748 7.5282 163.482 7.5282 160.699V9.66322C7.5282 6.87997 9.79052 4.61395 12.5775 4.61395H75.781C78.5642 4.61395 80.8303 6.87997 80.8303 9.66322V160.699C80.8303 163.482 78.5642 165.748 75.781 165.748Z" fill="#41404D"/>
<path d="M22.0992 6.56367V9.06041C22.0992 10.3813 23.1746 11.4567 24.4992 11.4567H64.4284C65.7493 11.4567 66.8284 10.3813 66.8284 9.06041V6.56367H22.0992ZM64.4284 13.3171H24.4992C22.1513 13.3171 20.2388 11.4083 20.2388 9.06041V5.63344C20.2388 5.11996 20.6555 4.70321 21.169 4.70321H67.7586C68.2721 4.70321 68.6888 5.11996 68.6888 5.63344V9.06041C68.6888 11.4083 66.7763 13.3171 64.4284 13.3171Z" fill="#41404D"/>
<path d="M79.8993 69.7305H8.45398V20.7706H79.8993V69.7305Z" fill="#00C2EB"/>
<path d="M9.38805 68.7996H78.9729V21.7002H9.38805V68.7996ZM79.8995 70.66H8.45782C7.94061 70.66 7.52759 70.2433 7.52759 69.7298V20.77C7.52759 20.2565 7.94061 19.8397 8.45782 19.8397H79.8995C80.413 19.8397 80.8297 20.2565 80.8297 20.77V69.7298C80.8297 70.2433 80.413 70.66 79.8995 70.66Z" fill="#41404D"/>
<path d="M79.8993 148.531H8.45398V113.741H79.8993V148.531Z" fill="#DADADA"/>
<path d="M9.38805 147.602H78.9729V114.672H9.38805V147.602ZM79.8995 149.462H8.45782C7.94061 149.462 7.52759 149.046 7.52759 148.532V113.745C7.52759 113.228 7.94061 112.815 8.45782 112.815H79.8995C80.413 112.815 80.8297 113.228 80.8297 113.745V148.532C80.8297 149.046 80.413 149.462 79.8995 149.462Z" fill="#41404D"/>
<path d="M62.6116 41.2798H26.314C25.8005 41.2798 25.3838 40.863 25.3838 40.3496C25.3838 39.8361 25.8005 39.4193 26.314 39.4193H62.6116C63.1251 39.4193 63.5418 39.8361 63.5418 40.3496C63.5418 40.863 63.1251 41.2798 62.6116 41.2798Z" fill="#41404D"/>
<path d="M56.0108 48.9084H32.9151C32.4016 48.9084 31.9849 48.4917 31.9849 47.9782C31.9849 47.4647 32.4016 47.048 32.9151 47.048H56.0108C56.5243 47.048 56.9411 47.4647 56.9411 47.9782C56.9411 48.4917 56.5243 48.9084 56.0108 48.9084Z" fill="#41404D"/>
<path d="M36.966 124.863H21.3865C20.8693 124.863 20.4563 124.446 20.4563 123.932C20.4563 123.419 20.8693 123.002 21.3865 123.002H36.966C37.4795 123.002 37.8962 123.419 37.8962 123.932C37.8962 124.446 37.4795 124.863 36.966 124.863Z" fill="#41404D"/>
<path d="M36.966 131.298H21.3865C20.8693 131.298 20.4563 130.881 20.4563 130.367C20.4563 129.854 20.8693 129.437 21.3865 129.437H36.966C37.4795 129.437 37.8962 129.854 37.8962 130.367C37.8962 130.881 37.4795 131.298 36.966 131.298Z" fill="#41404D"/>
<path d="M28.7478 137.657H21.3841C20.8706 137.657 20.4539 137.24 20.4539 136.727C20.4539 136.213 20.8706 135.796 21.3841 135.796H28.7478C29.2613 135.796 29.678 136.213 29.678 136.727C29.678 137.24 29.2613 137.657 28.7478 137.657Z" fill="#41404D"/>
<path d="M65.1315 124.863H49.5521C49.0348 124.863 48.6218 124.446 48.6218 123.932C48.6218 123.419 49.0348 123.002 49.5521 123.002H65.1315C65.645 123.002 66.0618 123.419 66.0618 123.932C66.0618 124.446 65.645 124.863 65.1315 124.863Z" fill="#41404D"/>
<path d="M65.1315 131.298H49.5521C49.0348 131.298 48.6218 130.881 48.6218 130.367C48.6218 129.854 49.0348 129.437 49.5521 129.437H65.1315C65.645 129.437 66.0618 129.854 66.0618 130.367C66.0618 130.881 65.645 131.298 65.1315 131.298Z" fill="#41404D"/>
<path d="M56.9118 137.657H49.5481C49.0347 137.657 48.6179 137.24 48.6179 136.727C48.6179 136.213 49.0347 135.796 49.5481 135.796H56.9118C57.4253 135.796 57.8421 136.213 57.8421 136.727C57.8421 137.24 57.4253 137.657 56.9118 137.657Z" fill="#41404D"/>
<path d="M49.1319 104.387H36.5589C36.0454 104.387 35.6287 103.97 35.6287 103.457C35.6287 102.943 36.0454 102.527 36.5589 102.527H49.1319C49.6453 102.527 50.0621 102.943 50.0621 103.457C50.0621 103.97 49.6453 104.387 49.1319 104.387Z" fill="#41404D"/>
<path d="M52.0147 98.1206H33.6742V79.7802H52.0147V98.1206Z" fill="#DADADA"/>
<path d="M34.6051 97.1897H51.0851V80.7098H34.6051V97.1897ZM52.0153 99.0502H33.6749C33.1614 99.0502 32.7446 98.6371 32.7446 98.1199V79.7832C32.7446 79.2698 33.1614 78.853 33.6749 78.853H52.0153C52.5288 78.853 52.9455 79.2698 52.9455 79.7832V98.1199C52.9455 98.6371 52.5288 99.0502 52.0153 99.0502Z" fill="#41404D"/>
<path d="M31.3788 164.817H14.4673V155.932H31.3788V164.817Z" fill="#00BBE3"/>
<path d="M15.3976 163.888H30.445V156.859H15.3976V163.888ZM31.3788 165.748H14.4673C13.9539 165.748 13.5371 165.332 13.5371 164.818V155.933C13.5371 155.419 13.9539 155.002 14.4673 155.002H31.3788C31.8923 155.002 32.3091 155.419 32.3091 155.933V164.818C32.3091 165.332 31.8923 165.748 31.3788 165.748Z" fill="#41404D"/>
<path d="M53.8754 164.817H36.9639V155.932H53.8754V164.817Z" fill="#00BBE3"/>
<path d="M37.8978 163.888H52.9452V156.859H37.8978V163.888ZM53.8755 165.748H36.9676C36.4541 165.748 36.0374 165.332 36.0374 164.818V155.933C36.0374 155.419 36.4541 155.002 36.9676 155.002H53.8755C54.389 155.002 54.8057 155.419 54.8057 155.933V164.818C54.8057 165.332 54.389 165.748 53.8755 165.748Z" fill="#41404D"/>
<path d="M76.2117 164.817H59.3038V155.932H76.2117V164.817Z" fill="#00BBE3"/>
<path d="M60.2308 163.888H75.2819V156.859H60.2308V163.888ZM76.2121 165.748H59.3006C58.7871 165.748 58.3704 165.332 58.3704 164.818V155.933C58.3704 155.419 58.7871 155.002 59.3006 155.002H76.2121C76.7256 155.002 77.1423 155.419 77.1423 155.933V164.818C77.1423 165.332 76.7256 165.748 76.2121 165.748Z" fill="#41404D"/>
</svg>
