<svg width="200" height="189" viewBox="0 0 200 189" fill="none" xmlns="http://www.w3.org/2000/svg">
<path d="M142.863 95.0749C142.863 92.1154 141.176 89.5829 138.447 88.4443L104.988 74.5217C100.539 72.6757 95.4358 72.6632 90.9903 74.5134L5.902 109.768C3.17274 110.902 1.47742 113.439 1.47742 116.39C1.47324 119.337 3.16438 121.873 5.88945 123.012L39.3521 136.935C41.6126 137.876 43.986 138.337 46.3594 138.337C48.7287 138.337 51.0938 137.876 53.35 136.943L138.438 101.689C141.163 100.558 142.863 98.0218 142.863 95.0749Z" fill="#DADADA"/>
<path d="M49.033 136.961L55.0734 134.458C58.238 133.148 60.3016 130.058 60.3016 126.634V61.7013V34.5887V25.9196C60.3016 21.788 57.8152 18.0625 53.9976 16.4718L19.3 2.0428C16.2861 0.787003 12.8913 0.791183 9.87739 2.05116L4.36865 4.34926" fill="#DADADA"/>
<path d="M60.3016 35.7023C59.6904 35.7023 59.1923 35.2041 59.1923 34.5888V25.9196C59.1923 22.2234 56.9863 18.9165 53.5747 17.4975L18.8772 3.06841C16.1563 1.93401 13.0293 1.92983 10.3085 3.0726L4.79553 5.3707C4.23461 5.61767 3.5816 5.34558 3.343 4.77629C3.10858 4.21118 3.3723 3.55817 3.9416 3.32376L9.45452 1.02147C12.7154 -0.33897 16.4618 -0.33897 19.7269 1.0131L54.4244 15.4463C58.669 17.2128 61.4108 21.3193 61.4108 25.9196V34.5888C61.4108 35.2041 60.9127 35.7023 60.3016 35.7023Z" fill="#41404D"/>
<path d="M49.034 138.069C48.5987 138.069 48.1843 137.814 48.0084 137.382C47.774 136.817 48.0419 136.169 48.607 135.93L54.6474 133.435C57.406 132.288 59.1934 129.617 59.1934 126.637V51.8756C59.1934 51.2644 59.6873 50.7663 60.3027 50.7663C60.9138 50.7663 61.4119 51.2644 61.4119 51.8756V126.637C61.4119 130.522 59.0929 133.992 55.4972 135.482L49.461 137.985C49.3187 138.044 49.1763 138.069 49.034 138.069Z" fill="#41404D"/>
<path d="M52.4772 131.757C52.4772 135.789 48.3791 138.522 44.6578 136.973L7.41098 121.477C3.59755 119.89 1.11108 116.16 1.11108 112.029V9.46835C1.11108 5.44144 5.20915 2.70801 8.93048 4.25682L46.1773 19.7533C49.9907 21.3398 52.4772 25.0653 52.4772 29.201V131.757Z" fill="#00BBE3"/>
<path d="M46.8327 138.517C45.9536 138.517 45.0704 138.345 44.2332 137.993L6.98639 122.501C2.74181 120.735 0 116.628 0 112.028V9.46718C0 7.20674 1.12603 5.10538 3.00972 3.84959C4.8934 2.58961 7.26685 2.36357 9.35565 3.23007L46.6025 18.7265C50.847 20.493 53.5888 24.6078 53.5888 29.1999V102.191C53.5888 102.802 53.0907 103.3 52.4796 103.3C51.8642 103.3 51.3661 102.802 51.3661 102.191V29.1999C51.3661 25.5036 49.1643 22.1967 45.7485 20.7777L8.50171 5.2812C7.07848 4.69098 5.5213 4.84167 4.24039 5.69562C2.95948 6.54956 2.22275 7.92674 2.22275 9.46718V112.028C2.22275 115.724 4.42876 119.031 7.84033 120.454L45.0871 135.951C46.5104 136.541 48.0675 136.39 49.3485 135.532C50.6294 134.678 51.3661 133.301 51.3661 131.756V112.04C51.3661 111.429 51.8642 110.931 52.4796 110.931C53.0907 110.931 53.5888 111.429 53.5888 112.04V131.756C53.5888 134.021 52.4628 136.126 50.5833 137.382C49.4489 138.136 48.1471 138.517 46.8327 138.517Z" fill="#41404D"/>
<path d="M18.5895 8.3959L34.2115 14.8967V17.7097C34.2115 18.932 32.9683 19.765 31.8381 19.2962L20.5067 14.5828C19.3471 14.0972 18.5895 12.9628 18.5895 11.707V8.3959Z" fill="white"/>
<path d="M19.7013 10.0621V11.7072C19.7013 12.5193 20.1827 13.2434 20.9319 13.5532L32.2634 18.2666C32.5229 18.3796 32.7489 18.2666 32.8327 18.2122C32.9122 18.162 33.1048 17.9987 33.1048 17.7099V15.642L19.7013 10.0621ZM32.4978 20.5354C32.1294 20.5354 31.7611 20.4642 31.4094 20.3219L20.078 15.6085C18.4999 14.9471 17.4785 13.4192 17.4785 11.7072V8.39608C17.4785 8.02771 17.6669 7.68027 17.9725 7.47097C18.2822 7.27005 18.6757 7.23238 19.0148 7.37051L34.641 13.8713C35.0554 14.0471 35.3233 14.449 35.3233 14.8969V17.7099C35.3233 18.6559 34.8545 19.535 34.0633 20.0624C33.5903 20.3763 33.0462 20.5354 32.4978 20.5354Z" fill="#41404D"/>
<path d="M32.7208 124.174C32.5826 124.174 32.4403 124.149 32.3064 124.09L19.3005 118.854C18.7312 118.632 18.455 117.983 18.6852 117.414C18.9112 116.844 19.5684 116.564 20.1294 116.798L33.1352 122.035C33.7045 122.261 33.9807 122.91 33.7505 123.479C33.5789 123.91 33.1603 124.174 32.7208 124.174Z" fill="#41404D"/>
<path d="M18.6138 61.2269C18.2831 61.2269 17.9566 61.0804 17.7389 60.8L9.9446 50.829C9.71855 50.536 9.64739 50.1508 9.76041 49.7992C9.87762 49.4518 10.1581 49.1755 10.5139 49.075L21.0207 46.0779C21.6025 45.8979 22.2221 46.2495 22.3895 46.8397C22.5569 47.4341 22.2179 48.0453 21.6277 48.2127L12.7073 50.7578L19.4886 59.4311C19.8654 59.9167 19.7816 60.6158 19.2961 60.9925C19.0951 61.1474 18.8565 61.2269 18.6138 61.2269Z" fill="#41404D"/>
<path d="M21.4955 70.0118C21.3616 70.0118 21.2234 69.9867 21.0895 69.9323C20.5202 69.7105 20.2397 69.0658 20.4616 68.4923L29.6833 45.0299C29.9135 44.4648 30.5582 44.1802 31.1233 44.402C31.6967 44.6239 31.9772 45.2727 31.7553 45.8462L22.5295 69.3086C22.3578 69.7439 21.9392 70.0118 21.4955 70.0118Z" fill="#41404D"/>
<path d="M31.3574 65.9547C30.8425 65.9547 30.3821 65.5947 30.2733 65.0715C30.1477 64.4729 30.5328 63.8827 31.1314 63.7571L40.7466 61.7478L33.2118 52.5805C32.8225 52.1033 32.8895 51.4043 33.3625 51.015C33.8355 50.6299 34.5346 50.6926 34.9281 51.1657L43.6307 61.752C43.8777 62.0534 43.9488 62.4594 43.8191 62.8278C43.6893 63.192 43.3795 63.4641 42.9986 63.5478L31.5877 65.9338C31.5123 65.9463 31.437 65.9547 31.3574 65.9547Z" fill="#41404D"/>
<path d="M10.1768 75.0418L43.4134 88.8681V97.9265L10.2395 84.1212L10.1768 75.0418Z" fill="white"/>
<path d="M11.3461 83.3818L42.3056 96.2621V89.6105L11.3 76.7135L11.3461 83.3818ZM43.4148 99.0374C43.2683 99.0374 43.126 99.0122 42.9879 98.9494L9.81402 85.1441C9.4038 84.9767 9.13171 84.579 9.12752 84.1311L9.06892 75.0517C9.06473 74.6792 9.24891 74.3275 9.55449 74.1266C9.86844 73.9131 10.2577 73.8713 10.6052 74.022L43.8418 87.8441C44.2562 88.0115 44.5241 88.4217 44.5241 88.8696V97.9281C44.5241 98.3006 44.3399 98.6439 44.0302 98.849C43.846 98.9704 43.6325 99.0374 43.4148 99.0374Z" fill="#41404D"/>
<path d="M195.584 130.831L162.121 116.913C157.684 115.062 152.585 115.071 148.127 116.904L63.0349 152.159C60.3099 153.293 58.6145 155.83 58.6104 158.781C58.6104 161.728 60.3015 164.269 63.0266 165.403L96.4851 179.326C98.7455 180.263 101.119 180.736 103.492 180.736C105.857 180.736 108.227 180.263 110.483 179.33L195.575 144.08C198.301 142.949 199.996 140.413 200 137.466C200 134.506 198.309 131.97 195.584 130.831Z" fill="#DADADA"/>
<path d="M38.7563 158.594L38.794 166.769C38.5764 168.36 39.3424 170.072 41.0921 170.8L78.2887 186.276C81.9389 187.795 86.0453 187.799 89.6955 186.284L178.53 149.477C180.087 148.832 180.866 147.405 180.87 145.977L180.816 136.881" fill="#DADADA"/>
<path d="M84.0005 188.537C81.92 188.537 79.8396 188.123 77.8638 187.303L40.6631 171.823C38.5785 170.956 37.3813 168.863 37.691 166.62L37.645 158.599C37.645 157.988 38.1389 157.49 38.7501 157.486H38.7543C39.3654 157.486 39.8635 157.98 39.8677 158.591L39.9012 166.766C39.7505 167.947 40.1984 169.223 41.517 169.776L78.7178 185.251C82.1168 186.662 85.8674 186.666 89.2706 185.256L178.105 148.448C179.324 147.946 179.759 146.841 179.759 145.979L179.7 136.891C179.696 136.276 180.19 135.777 180.801 135.769H180.81C181.425 135.769 181.919 136.263 181.923 136.874L181.977 145.97C181.977 147.992 180.822 149.729 178.955 150.504L90.1204 187.311C88.1446 188.131 86.0725 188.537 84.0005 188.537Z" fill="#41404D"/>
<path d="M141.336 118.493L178.537 133.969C181.651 135.267 181.647 139.679 178.532 140.972L89.6976 177.779C86.0474 179.291 81.941 179.286 78.2908 177.767L41.09 162.291C37.9757 160.994 37.9798 156.582 41.0942 155.292L129.929 118.485C133.579 116.974 137.686 116.974 141.336 118.493Z" fill="#00C2EB"/>
<path d="M84.0009 180.031C81.9204 180.031 79.84 179.616 77.8642 178.796L40.6635 163.316C38.8007 162.542 37.6454 160.805 37.6454 158.787C37.6454 156.769 38.8091 155.04 40.6677 154.266L104.692 127.735C105.253 127.514 105.91 127.769 106.149 128.338C106.383 128.907 106.111 129.552 105.542 129.795L41.5216 156.317C40.3035 156.824 39.8681 157.925 39.8681 158.791C39.864 159.653 40.2993 160.759 41.5174 161.269L78.7182 176.745C82.1172 178.16 85.8678 178.155 89.271 176.753L178.106 139.942C179.324 139.439 179.759 138.334 179.759 137.472C179.759 136.605 179.324 135.5 178.11 134.994L140.909 119.514C137.556 118.124 133.709 118.12 130.352 119.51L122.545 122.742C121.984 122.993 121.327 122.716 121.097 122.143C120.858 121.578 121.126 120.929 121.696 120.695L129.502 117.459C133.408 115.843 137.87 115.851 141.759 117.467L178.96 132.947C180.827 133.721 181.978 135.454 181.978 137.472C181.978 139.485 180.822 141.223 178.956 141.997L90.1208 178.804C88.145 179.625 86.0729 180.031 84.0009 180.031Z" fill="#41404D"/>
<path d="M148.136 121.596L166.504 129.24L161.117 131.379C159.966 131.856 158.672 131.856 157.521 131.375L144.289 126.356C142.757 125.72 142.757 123.547 144.293 122.911L148.136 121.596Z" fill="white"/>
<path d="M148.095 122.787L144.65 123.963C144.294 124.114 144.253 124.486 144.253 124.637C144.253 124.788 144.294 125.16 144.713 125.332L157.92 130.338C158.816 130.715 159.812 130.719 160.695 130.355L163.558 129.216L148.095 122.787ZM159.326 132.842C158.569 132.842 157.803 132.695 157.095 132.398L143.893 127.396C142.729 126.914 142.03 125.864 142.03 124.637C142.03 123.411 142.733 122.356 143.867 121.891L147.773 120.547C148.028 120.464 148.309 120.468 148.56 120.577L166.932 128.212C167.347 128.388 167.623 128.798 167.619 129.246C167.614 129.698 167.334 130.104 166.92 130.271L161.524 132.415C160.829 132.699 160.076 132.842 159.326 132.842Z" fill="#41404D"/>
<path d="M116.018 159.053C115.871 159.053 115.729 159.028 115.591 158.965L84.3968 145.992C83.8317 145.758 83.5638 145.105 83.7982 144.544C84.0327 143.971 84.6857 143.699 85.2508 143.946L116.445 156.918C117.01 157.152 117.278 157.805 117.039 158.366C116.863 158.797 116.453 159.053 116.018 159.053Z" fill="#41404D"/>
<path d="M99.8969 159.299C99.7546 159.299 99.6122 159.274 99.4699 159.211L83.806 152.693C83.2409 152.459 82.973 151.806 83.2074 151.245C83.4418 150.676 84.0907 150.4 84.6599 150.647L100.324 157.164C100.889 157.399 101.157 158.052 100.922 158.612C100.742 159.044 100.332 159.299 99.8969 159.299Z" fill="#41404D"/>
<path d="M137.691 142.294C137.691 146.346 130.696 149.632 122.069 149.632C113.438 149.632 106.443 146.346 106.443 142.294C106.443 138.242 113.438 134.96 122.069 134.96C130.696 134.96 137.691 138.242 137.691 142.294Z" fill="white"/>
<path d="M122.067 136.07C113.515 136.07 107.555 139.347 107.555 142.294C107.555 145.241 113.515 148.519 122.067 148.519C130.615 148.519 136.58 145.241 136.58 142.294C136.58 139.347 130.615 136.07 122.067 136.07ZM122.067 150.742C112.687 150.742 105.332 147.033 105.332 142.294C105.332 137.556 112.687 133.847 122.067 133.847C131.452 133.847 138.799 137.556 138.799 142.294C138.799 147.033 131.452 150.742 122.067 150.742Z" fill="#41404D"/>
</svg>
